<svg width="27" height="30" viewBox="0 0 27 30" fill="none" xmlns="http://www.w3.org/2000/svg">
<path d="M11.5452 7.67407L14.607 8.32707C14.6853 8.36915 14.7244 8.40978 14.7244 8.45041L18.8703 23.1661C18.9108 23.2067 18.9108 23.2473 18.8703 23.2894C18.8325 23.33 18.7933 23.3707 18.7542 23.3707L16.9722 23.6159L16.1959 23.7378H16.1595L14.8797 23.4926C14.8027 23.4519 14.7636 23.4113 14.7636 23.3707L14.2992 21.3261L15.3454 21.2854L15.9259 23.288C15.9259 23.3707 16.0434 23.4519 16.1203 23.4519H16.1973C16.3147 23.4113 16.3917 23.2894 16.3525 23.1661L15.7329 20.9996C15.7124 20.9516 15.6797 20.9108 15.6387 20.8818C15.5976 20.8528 15.5498 20.8368 15.5007 20.8356L12.3214 20.9996L10.4611 21.0808L9.57013 24.4735C9.57013 24.5562 9.49318 24.5969 9.45403 24.5969L5.80903 25.0873H5.73208L4.14313 24.311C4.06483 24.2704 4.02703 24.1876 4.06483 24.1064L9.33658 8.69565C9.33658 8.65502 9.37573 8.61439 9.41353 8.61439L11.0808 7.75533L5.80903 24.4343C5.77123 24.5577 5.84818 24.681 5.96428 24.7202H6.04123C6.11953 24.7202 6.19648 24.6389 6.23563 24.5577L11.5452 7.67407ZM12.9019 11.4353C12.8628 11.4353 12.7467 11.5166 12.7089 11.5979L10.8094 17.9334C10.8094 18.0161 10.8094 18.0974 10.8486 18.138C10.9255 18.1786 10.9647 18.2207 11.0416 18.2207H14.7244C14.7959 18.2188 14.8644 18.1894 14.9175 18.138C14.9566 18.0974 14.9944 18.0161 14.8783 17.9348L13.0963 11.5979C13.0963 11.5166 12.9802 11.4353 12.9019 11.4353ZM12.9802 12.4569L14.4517 17.7709H13.4838L12.5145 14.0096L12.9802 12.4569Z" fill="#BDB912"/>
<path d="M22.4289 4.77197L22.95 5.4032V5.57879L22.9162 10.7781L22.9108 11.6096L22.8757 17.369L22.8487 17.3879L22.279 17.8319L19.822 17.5794V8.77412C19.5979 9.02661 19.2631 9.32119 18.8905 9.65929C18.3316 10.1236 17.8105 10.4589 17.55 10.5851V8.31267C17.55 8.26913 17.5878 8.26913 17.6242 8.2285C17.6985 8.18497 18.5179 7.80768 19.1511 7.04876C19.7856 6.28983 19.8963 6.07942 20.0448 5.6586C20.2311 5.23778 20.2311 5.068 20.2311 5.068C20.2311 5.068 20.2311 5.02592 20.2689 5.02592H20.3053L21.982 4.77197V17.2428C21.982 17.4111 22.0941 17.4953 22.2048 17.4953C22.3533 17.4953 22.4289 17.369 22.4289 17.2428V4.77197ZM19.3725 9.94226V10.7113C19.336 10.7549 19.2618 10.7549 19.224 10.797C19.0755 10.8811 18.5544 11.1336 18.5544 11.1336L17.7714 11.0495C18.2714 10.7762 18.7457 10.4516 19.1875 10.0801C19.2834 10.0238 19.3711 9.95296 19.4481 9.8697L19.3725 9.94226Z" fill="black"/>
</svg>
