<svg width="65" height="65" viewBox="0 0 65 65" fill="none" xmlns="http://www.w3.org/2000/svg">
<circle cx="32.5" cy="32.5" r="32.5" fill="#BDB912"/>
<path d="M23.5248 16.0941C22.6921 16.1721 21.6773 16.4583 20.8447 16.8382C20.1473 17.1609 19.3979 17.7333 18.8463 18.3787C17.6962 19.7213 17.0717 21.2825 16.9 23.2289C16.6502 26.1067 18.0188 29.9213 20.8395 34.173C22.9471 37.3579 26.2205 41.1205 28.8121 43.3374C29.7332 44.1232 30.16 44.4511 31.1071 45.112C33.5374 46.7929 35.0102 47.4799 36.9097 47.8077C38.0077 48.0003 39.621 48.0003 40.5265 47.8077C42.9568 47.2977 44.9656 45.393 45.7878 42.817C46.0012 42.1509 46.074 41.7138 46.074 41.0424C46.0793 40.5272 46.0636 40.444 45.9439 40.2098C45.767 39.8559 45.3871 39.5645 44.4868 39.0805C43.6281 38.6225 42.7851 38.2322 41.6298 37.7639C41.1874 37.5869 40.5733 37.3319 40.2715 37.2018C39.4753 36.8583 38.2679 36.4784 37.9609 36.4732C37.7891 36.468 37.6226 36.5045 37.4613 36.5825C36.9877 36.8115 36.3684 37.5245 35.8636 38.4196C35.4994 39.0649 35.0622 39.424 34.6563 39.4136C34.1203 39.4031 33.7352 39.1742 31.794 37.7274C29.2128 35.8071 27.2717 33.4861 25.8198 30.577C25.0704 29.0834 24.7737 28.2352 24.7685 27.6055C24.7685 27.1892 25.112 26.9342 26.3818 26.4242C27.1364 26.1223 27.5944 25.8465 27.9066 25.5134C28.1876 25.2168 28.3073 24.9722 28.3073 24.712C28.3073 24.2749 27.9274 22.2661 27.4226 20.0179C27.0167 18.2017 26.9334 17.9207 26.694 17.4107C26.439 16.8851 26.1164 16.5208 25.7105 16.3022C25.4503 16.1617 25.3098 16.1305 24.8622 16.0889C24.2533 16.0316 24.1336 16.0368 23.5248 16.0941Z" fill="white"/>
</svg>
