<svg width="65" height="65" viewBox="0 0 65 65" fill="none" xmlns="http://www.w3.org/2000/svg">
<circle cx="32.5" cy="32.5" r="32.5" fill="#BDB912"/>
<g clip-path="url(#clip0_58_122)">
<path d="M24.5759 31.971L23.1806 29.0567L22.6574 25.7996L24.0527 22.0282L25.9712 19.2853L29.8082 17.0567L34.6917 16.7139L38.7031 18.4282L41.4937 21.3424L42.7145 24.9424L42.3657 28.7139L39.4026 34.8624C39.3989 34.8839 39.3161 35.0518 39.2263 35.2282L39.4026 34.8624C39.4086 34.8281 39.2142 35.1647 38.5287 36.4282C37.4125 38.4853 35.9707 40.0282 35.3893 40.5424L32.7732 43.4567L29.4594 39.3424L24.5759 31.971Z" fill="white"/>
<path d="M32.502 44.9425C32.273 44.9425 32.0543 44.8459 31.9155 44.6665C31.4922 44.1664 21.5431 32.2975 21.5431 26.4889C21.5466 20.4872 26.4639 15.5996 32.502 15.5996C38.5401 15.5996 43.4574 20.4872 43.4574 26.4889C43.4574 32.2906 33.5083 44.1664 33.085 44.6665C32.9496 44.8459 32.731 44.9425 32.502 44.9425ZM32.502 17.1345C27.3071 17.1345 23.0804 21.3357 23.0804 26.4993C23.0804 31.0006 30.3539 40.3239 32.502 42.9729C34.6466 40.3136 41.9236 30.9902 41.9236 26.4993C41.9236 21.3288 37.6969 17.1345 32.502 17.1345Z" fill="white"/>
<path d="M32.6822 30.5424C30.0042 30.5424 27.8202 28.3584 27.8202 25.6804C27.8202 23.0024 30.0042 20.8184 32.6822 20.8184C35.3602 20.8184 37.5442 23.0024 37.5442 25.6804C37.5442 28.3584 35.3639 30.5424 32.6822 30.5424ZM32.6822 22.4526C30.9068 22.4526 29.4619 23.8975 29.4619 25.6729C29.4619 27.4484 30.9068 28.8932 32.6822 28.8932C34.4576 28.8932 35.9025 27.4484 35.9025 25.6729C35.9025 23.8975 34.4576 22.4526 32.6822 22.4526Z" fill="#BDB912"/>
<path d="M32.5263 51.2567C26.6985 51.2567 20.8003 49.6373 20.8003 46.5396C20.8003 44.6527 23.0957 43.1224 27.0885 42.3276C27.5305 42.2421 27.9688 42.5281 28.0543 42.9813C28.1397 43.4233 27.8537 43.8616 27.4117 43.947C24.1505 44.5896 22.4457 45.7373 22.4457 46.5396C22.4457 47.7913 26.3791 49.6001 32.53 49.6001C38.6883 49.6001 42.6143 47.7801 42.6143 46.5396C42.6143 45.7484 40.9428 44.6081 37.7411 43.9656C37.2991 43.8801 37.0094 43.4418 37.0985 42.9998C37.184 42.5578 37.6223 42.2607 38.0643 42.3573C41.9977 43.1559 44.2485 44.6787 44.2485 46.5507C44.2523 49.6373 38.354 51.2567 32.5263 51.2567Z" fill="white"/>
</g>
<defs>
<clipPath id="clip0_58_122">
<rect width="37.1429" height="37.1429" fill="white" transform="translate(14.1145 14.1143)"/>
</clipPath>
</defs>
</svg>
