<?xml version="1.0" encoding="utf-8"?>
<!-- Svg Vector Icons : http://www.onlinewebfonts.com/icon -->
<!DOCTYPE svg PUBLIC "-//W3C//DTD SVG 1.1//EN" "http://www.w3.org/Graphics/SVG/1.1/DTD/svg11.dtd">
<svg version="1.1" xmlns="http://www.w3.org/2000/svg" xmlns:xlink="http://www.w3.org/1999/xlink" x="0px" y="0px" viewBox="0 0 1000 1000" enable-background="new 0 0 1000 1000" xml:space="preserve">
<metadata> Svg Vector Icons : http://www.onlinewebfonts.com/icon </metadata>
<g><path d="M500,860.7c-6.6,0-12.9-2.8-16.9-8c-12.2-14.5-298.9-358.6-298.9-527C184.3,151.7,326,10,500,10s315.7,141.7,315.7,315.7c0,168.2-286.7,512.5-298.9,527C512.9,857.9,506.6,860.7,500,860.7z M500,54.5c-149.7,0-271.5,121.8-271.5,271.5c0,130.5,209.6,400.8,271.5,477.6c61.8-77.1,271.5-347.4,271.5-477.6C771.5,176.1,649.7,54.5,500,54.5z"/><path d="M504.2,432.3c-72.1,0-130.9-58.8-130.9-130.9s58.8-130.9,130.9-130.9c72.1,0,130.9,58.8,130.9,130.9S576.4,432.3,504.2,432.3z M504.2,214.5c-47.8,0-86.7,38.9-86.7,86.7c0,47.8,38.9,86.7,86.7,86.7c47.8,0,86.7-38.9,86.7-86.7C590.9,253.4,552,214.5,504.2,214.5z"/><path d="M500,990c-156.9,0-315.7-43.6-315.7-127c0-50.8,61.8-92,169.3-113.4c11.9-2.3,23.7,5.4,26,17.6c2.3,11.9-5.4,23.7-17.3,26c-87.8,17.3-133.7,48.2-133.7,69.8c0,33.7,105.9,82.4,271.5,82.4c165.8,0,271.5-49,271.5-82.4c0-21.3-45-52-131.2-69.3c-11.9-2.3-19.7-14.1-17.3-26c2.3-11.9,14.1-19.9,26-17.3c105.9,21.5,166.5,62.5,166.5,112.9C815.7,946.4,656.9,990,500,990z"/><path d="M363.9,770.3"/></g>
</svg>