<svg width="27" height="24" viewBox="0 0 27 24" fill="none" xmlns="http://www.w3.org/2000/svg">
<path d="M21.8079 3.72804C22.1961 3.72697 22.5791 3.82744 22.9261 4.02137C23.2731 4.2153 23.5744 4.49728 23.8059 4.84463L23.9342 5.05531L24.0462 5.28254C24.2082 5.65123 24.3 6.06657 24.3 6.50599V17.6193C24.3 19.1542 23.1836 20.3972 21.8079 20.3972H5.19211C4.86473 20.3972 4.54056 20.3253 4.23812 20.1856C3.93567 20.0459 3.66088 19.8412 3.42945 19.5831C3.19802 19.325 3.01449 19.0185 2.88932 18.6813C2.76416 18.3441 2.69984 17.9827 2.70001 17.6178V6.50599C2.70001 4.97104 3.81646 3.72804 5.19211 3.72804H21.8079ZM15.9759 13.1138L15.1362 13.9264C14.6826 14.3666 14.1014 14.609 13.5 14.609C12.8986 14.609 12.3175 14.3666 11.8638 13.9264L11.0241 13.1138L4.10401 18.2965C4.20219 18.4921 4.34139 18.6583 4.50971 18.781C4.67803 18.9036 4.87047 18.979 5.07061 19.0007L5.19211 19.0068H21.8066C22.2723 19.0068 22.6787 18.7208 22.8933 18.2995L15.9746 13.1123L15.9759 13.1138ZM23.0351 6.26371L16.9479 12.1687L23.054 16.745V6.50599C23.054 6.42477 23.0477 6.3437 23.0351 6.26371ZM3.96496 6.26371C3.95919 6.29961 3.95469 6.33576 3.95146 6.37206L3.94606 6.50749V16.7435L10.0508 12.1687L3.96496 6.26371ZM21.8079 5.11701H5.19211C5.04361 5.11701 4.90051 5.14711 4.76686 5.19978L12.6819 12.879C13.122 13.3064 13.7619 13.3335 14.2277 12.9588L14.3181 12.879L22.2332 5.19978C22.1347 5.16045 22.0322 5.13517 21.9281 5.12454L21.8066 5.11701H21.8079Z" fill="#BDB912"/>
</svg>
