    <svg xmlns="http://www.w3.org/2000/svg" xmlns:xlink="http://www.w3.org/1999/xlink" width="20" height="15" viewBox="-2 -2 20 15" id="message" y="944">
        <path fill="#1C5DDA" d="M14.154 0a1.838 1.838 0 0 1 1.48.742l.095.14.083.151c.12.245.188.521.188.813v7.385c0 1.02-.827 1.846-1.846 1.846H1.846A1.846 1.846 0 0 1 0 9.23V1.846C0 .826.827 0 1.846 0h12.308zm-4.32 6.237l-.622.54a1.846 1.846 0 0 1-2.424 0l-.622-.54L1.04 9.681a.923.923 0 0 0 .716.468l.09.004h12.307c.345 0 .646-.19.805-.47L9.833 6.236zm5.229-4.552l-4.509 3.924 4.523 3.041V1.846a.929.929 0 0 0-.014-.161zm-14.126 0a.924.924 0 0 0-.01.072l-.004.09v6.802l4.522-3.04zM14.154.923H1.846c-.11 0-.216.02-.315.055l5.863 5.103c.326.284.8.302 1.145.053l.067-.053L14.469.978a.918.918 0 0 0-.226-.05l-.09-.005z">
        </path>
    </svg>