<svg xmlns="http://www.w3.org/2000/svg" xmlns:xlink="http://www.w3.org/1999/xlink" width="75.412" height="1570" viewBox="0 0 75.412 1570">
    <svg width="20" height="20" viewBox="-2 -2 20 20" id="a1" y="0">
        <g fill="none" transform="translate(1 1)">
            <path fill="#DA291C" d="M5.552 2l2.268.45c.058.029.087.057.087.085l3.071 10.141c.03.028.03.056 0 .085-.028.028-.057.056-.086.056l-1.32.169-.575.084H8.97l-.948-.169c-.057-.028-.086-.056-.086-.084l-.344-1.409.775-.028.43 1.38c0 .057.087.113.144.113h.057c.087-.028.144-.112.115-.197l-.459-1.493a.194.194 0 0 0-.172-.113l-2.355.113-1.378.056-.66 2.338c0 .057-.057.085-.086.085L1.303 14h-.057l-1.177-.535c-.058-.028-.086-.085-.058-.141l3.905-10.62c0-.028.029-.056.057-.056l1.235-.592L1.303 13.55c-.028.085.029.17.115.197h.057c.058 0 .115-.056.144-.112L5.552 2zm1.005 2.592c-.029 0-.115.056-.143.112L5.007 9.07c0 .057 0 .113.029.141.057.028.086.057.143.057h2.728a.222.222 0 0 0 .143-.057c.029-.028.057-.084-.029-.14l-1.32-4.367c0-.056-.086-.112-.144-.112zm.058.704l1.09 3.662h-.717L6.27 6.366l.345-1.07z">
            </path>
            <path fill="#000" d="M13.614 0L14 .435v.121l-.025 3.583-.004.573-.026 3.969-.02.013-.422.306-1.82-.174V2.758c-.166.174-.414.377-.69.61-.414.32-.8.551-.993.638V2.44c0-.03.028-.03.055-.058.055-.03.662-.29 1.131-.813.47-.523.552-.668.662-.958.138-.29.138-.407.138-.407s0-.029.028-.029h.027L13.283 0v8.594c0 .116.083.174.165.174.11 0 .166-.087.166-.174V0zM11.35 3.563v.53c-.027.03-.082.03-.11.059-.11.058-.496.232-.496.232l-.58-.058a6.44 6.44 0 0 0 1.049-.668.84.84 0 0 0 .193-.145l-.056.05z">
            </path>
        </g>
    </svg>
    <svg width="28" height="28" viewBox="-2 -2 28 28" fill="none" id="calendar" y="20">
        <path fill-rule="evenodd" clip-rule="evenodd" d="M20.6 20.4a1 1 0 0 0 1-1V4.6a1 1 0 0 0-1-1H18v-.7a.5.5 0 0 0-.5-.5h-.2a.5.5 0 0 0-.5.5v.7H7.2v-.7a.5.5 0 0 0-.5-.5h-.2a.5.5 0 0 0-.5.5v.7H3.4a1 1 0 0 0-1 1v14.8a1 1 0 0 0 1 1h17.2zm-.2-13.2H3.6V4.8H6v.7a.5.5 0 0 0 .5.5h.2a.5.5 0 0 0 .5-.5v-.7h9.6v.7a.5.5 0 0 0 .5.5h.2a.5.5 0 0 0 .5-.5v-.7h2.4v2.4zm-16.8 12h16.8V8.4H3.6v10.8zm6.7-8.4a.5.5 0 0 0 .5-.5v-.2a.5.5 0 0 0-.5-.5h-.2a.5.5 0 0 0-.5.5v.2a.5.5 0 0 0 .5.5h.2zm7.7-.5a.5.5 0 0 1-.5.5h-.2a.5.5 0 0 1-.5-.5v-.2a.5.5 0 0 1 .5-.5h.2a.5.5 0 0 1 .5.5v.2zm-4.1.5a.5.5 0 0 0 .5-.5v-.2a.5.5 0 0 0-.5-.5h-.2a.5.5 0 0 0-.5.5v.2a.5.5 0 0 0 .5.5h.2zm-3.1 1.9a.5.5 0 0 1-.5.5h-.2a.5.5 0 0 1-.5-.5v-.2a.5.5 0 0 1 .5-.5h.2a.5.5 0 0 1 .5.5v.2zm-4.1.5a.5.5 0 0 0 .5-.5v-.2a.5.5 0 0 0-.5-.5h-.2a.5.5 0 0 0-.5.5v.2a.5.5 0 0 0 .5.5h.2zm11.3-.5a.5.5 0 0 1-.5.5h-.2a.5.5 0 0 1-.5-.5v-.2a.5.5 0 0 1 .5-.5h.2a.5.5 0 0 1 .5.5v.2zm-4.1.5a.5.5 0 0 0 .5-.5v-.2a.5.5 0 0 0-.5-.5h-.2a.5.5 0 0 0-.5.5v.2a.5.5 0 0 0 .5.5h.2zm-3.1 1.9a.5.5 0 0 1-.5.5h-.2a.5.5 0 0 1-.5-.5v-.2a.5.5 0 0 1 .5-.5h.2a.5.5 0 0 1 .5.5v.2zm-4.1.5a.5.5 0 0 0 .5-.5v-.2a.5.5 0 0 0-.5-.5h-.2a.5.5 0 0 0-.5.5v.2a.5.5 0 0 0 .5.5h.2zm11.3-.5a.5.5 0 0 1-.5.5h-.2a.5.5 0 0 1-.5-.5v-.2a.5.5 0 0 1 .5-.5h.2a.5.5 0 0 1 .5.5v.2zm-4.1.5a.5.5 0 0 0 .5-.5v-.2a.5.5 0 0 0-.5-.5h-.2a.5.5 0 0 0-.5.5v.2a.5.5 0 0 0 .5.5h.2zm.5 1.9a.5.5 0 0 1-.5.5h-.2a.5.5 0 0 1-.5-.5v-.2a.5.5 0 0 1 .5-.5h.2a.5.5 0 0 1 .5.5v.2zm-4.1.5a.5.5 0 0 0 .5-.5v-.2a.5.5 0 0 0-.5-.5h-.2a.5.5 0 0 0-.5.5v.2a.5.5 0 0 0 .5.5h.2zm-3.1-.5a.5.5 0 0 1-.5.5h-.2a.5.5 0 0 1-.5-.5v-.2a.5.5 0 0 1 .5-.5h.2a.5.5 0 0 1 .5.5v.2z" fill="#231F20">
        </path>
    </svg>
    <svg width="34" height="34" viewBox="-2 -2 34 34" fill="none" id="card" y="48">
        <path fill-rule="evenodd" clip-rule="evenodd" d="M26.852 23.854a1.9 1.9 0 0 0 1.002-1.002c.097-.227.146-.47.146-.727V7.875c0-.258-.049-.5-.146-.727a1.9 1.9 0 0 0-1.002-1.002A1.816 1.816 0 0 0 26.125 6H3.875c-.258 0-.5.049-.727.146a1.902 1.902 0 0 0-1.002 1.002A1.816 1.816 0 0 0 2 7.875v14.25c0 .258.049.5.146.727a1.902 1.902 0 0 0 1.002 1.002c.227.097.47.146.727.146h22.25c.258 0 .5-.049.727-.146zM26.5 10.5h-23V7.875c0-.11.035-.2.105-.27.07-.07.16-.105.27-.105h22.25c.11 0 .2.035.27.105.07.07.105.16.105.27V10.5zM3.605 22.395c.07.07.16.105.27.105h22.25c.11 0 .2-.035.27-.105.07-.07.105-.16.105-.27V12h-23v10.125c0 .11.035.2.105.27zM23.924 19.5V18h-3v1.5h3zM19.635 18v1.5h-13.5V18h13.5z" fill="#231F20">
        </path>
    </svg>
    <svg width="30" height="27" viewBox="-2 -2 30 27" fill="none" id="card-icon" y="82">
        <path fill-rule="evenodd" clip-rule="evenodd" d="M11.665 17.703h-9.79c-.258 0-.5-.048-.727-.144a1.903 1.903 0 0 1-1.002-.985A1.76 1.76 0 0 1 0 15.859V1.844c0-.253.049-.492.146-.715A1.903 1.903 0 0 1 1.148.144C1.375.048 1.618 0 1.875 0h22.25c.258 0 .5.048.727.144a1.904 1.904 0 0 1 1.002.986c.097.222.146.46.146.714v12.384a2.313 2.313 0 0 0-.126-.094l-1.374-.95V5.901h-23v9.958a.356.356 0 0 0 .375.369h9.67l.12 1.475zm-.482-5.901l.12 1.475H4.136v-1.475h7.048zM1.5 4.426h23V1.844a.356.356 0 0 0-.375-.369H1.875c-.11 0-.2.035-.27.104a.356.356 0 0 0-.105.265v2.582z" fill="#231F20">
        </path>
        <path fill-rule="evenodd" clip-rule="evenodd" d="M13.566 22.021l-.015-.094L12.303 8c-.053-.583.612-.96 1.099-.624l11.64 8.027c.512.353.333 1.14-.284 1.243l-3.377.565 1.598 2.719a1.122 1.122 0 0 1-.317 1.48l-.105.068-2.414 1.37a1.163 1.163 0 0 1-1.574-.414l-1.597-2.719-2.185 2.593c-.378.448-1.1.257-1.222-.286zm9.278-6.452L13.83 9.351l.967 10.787 1.74-2.063a.708.708 0 0 1 1.092.017l.054.078 1.975 3.364 1.985-1.127-1.974-3.365a.685.685 0 0 1 .395-1l.093-.023 2.688-.45z" fill="#231F20">
        </path>
    </svg>
    <svg width="28" height="28" viewBox="-2 -2 28 28" fill="none" id="checkout-delivery" y="109">
        <path fill-rule="evenodd" clip-rule="evenodd" d="M14.855 4c.442 0 .8.354.8.79v.423h3.03c.362 0 .692.192.87.497l.047.094 1.645 3.698 1.392 1.82c.105.136.161.303.161.474v5.142c0 .437-.359.79-.8.79h-2.226a2.791 2.791 0 0 1-2.604 2.268l-.154.004a2.796 2.796 0 0 1-2.733-2.149l-.025-.122h-3.292a2.791 2.791 0 0 1-2.605 2.267L8.208 20a2.796 2.796 0 0 1-2.733-2.149l-.026-.122H3.802a.597.597 0 0 1-.6-.593c0-.3.226-.548.519-.587l.081-.006h1.691l.034-.119a2.798 2.798 0 0 1 2.527-1.95l.154-.005a2.8 2.8 0 0 1 2.68 1.956l.034.117h3.38l.027-.095a2.797 2.797 0 0 1 2.533-1.974l.154-.004a2.8 2.8 0 0 1 2.688 1.979l.026.094h1.868v-4.616l-.944-1.24h-5.8a.398.398 0 0 1-.4-.394V5.184l-10.652.001a.598.598 0 0 1-.595-.512l-.005-.08c0-.3.226-.548.519-.588L3.802 4h11.053zm2.161 11.654c-.884 0-1.601.708-1.601 1.58 0 .873.717 1.58 1.601 1.58.885 0 1.602-.707 1.602-1.58 0-.872-.717-1.58-1.602-1.58zm-10.41 1.58c0-.872.717-1.58 1.602-1.58.884 0 1.601.708 1.601 1.58 0 .873-.717 1.58-1.601 1.58a1.591 1.591 0 0 1-1.602-1.58zm-.003-4.509a.597.597 0 0 1 .604.59.595.595 0 0 1-.517.59l-.081.005-4.052.023a.597.597 0 0 1-.603-.59.595.595 0 0 1 .516-.59l.081-.005 4.052-.023zm2.205-2.204a.597.597 0 0 0-.6-.593H1.8l-.082.006a.595.595 0 0 0-.519.587c0 .327.269.593.6.593h6.408l.081-.006a.595.595 0 0 0 .52-.587zm6.847-4.123v3.104h4.28l-1.38-3.104h-2.9zM9.797 7.723a.597.597 0 0 0-.6-.592H2.554l-.081.005a.595.595 0 0 0-.52.587c0 .328.27.593.601.593h6.643l.081-.005a.595.595 0 0 0 .52-.588z" fill="#DC092E">
        </path>
    </svg>
    <svg width="28" height="28" viewBox="-2 -2 28 28" fill="none" id="checkout-pickup" y="137">
        <path fill-rule="evenodd" clip-rule="evenodd" d="M7.484 8V5.2h3.927V8l-.004.132a2.012 2.012 0 0 1-.379 1.055l-.01.013c-.358.486-.928.8-1.57.8l-.13-.004C8.294 9.928 7.484 9.06 7.484 8zm-2.735 3.173a3.131 3.131 0 0 0 2.146-1.307A3.12 3.12 0 0 0 9.447 11.2 3.12 3.12 0 0 0 12 9.866a3.12 3.12 0 0 0 2.553 1.334 3.12 3.12 0 0 0 2.553-1.334 3.131 3.131 0 0 0 2.145 1.307V18.4l-.006.072a.395.395 0 0 1-.387.328h-2.356v-4.4c0-.884-.703-1.6-1.57-1.6H9.068c-.867 0-1.57.716-1.57 1.6v4.4H5.141l-.07-.006a.398.398 0 0 1-.323-.394v-7.227zm-1.178-.07C2.21 10.753 1.201 9.496 1.201 8V4.8c0-.442.35-.8.785-.8H22.015c.433 0 .785.358.785.8V8c0 1.496-1.008 2.753-2.37 3.103V18.4c0 .884-.704 1.6-1.572 1.6H5.142c-.868 0-1.57-.716-1.57-1.6v-7.297zm.82-1.104A1.95 1.95 0 0 0 5.913 9.2l.01-.013c.217-.3.353-.662.378-1.055L6.306 8V5.2H2.378V8c0 .826.492 1.535 1.193 1.84.2.087.415.14.642.156l.129.004h.049zm14.86-.042c.09.02.184.032.278.039zm.278.039l.13.004a1.927 1.927 0 0 0 .77-.16 2 2 0 0 0 1.189-1.708L21.622 8V5.2h-3.927V8c0 .962.667 1.766 1.556 1.957M16.517 8l-.005.132a2.012 2.012 0 0 1-.378 1.054l-.01.014a1.95 1.95 0 0 1-1.571.8l-.13-.004C13.4 9.928 12.59 9.06 12.59 8V5.2h3.928V8zm-1.193 6.4v4.4H8.677v-4.4c0-.196.138-.36.322-.394l.07-.006h5.862c.193 0 .353.142.387.328l.006.072z" fill="#DC092E">
        </path>
    </svg>
    <svg width="75" height="68" viewBox="-2 -2 75 68" fill="none" id="company-stories" y="165">
        <path d="M70 1H49.3c-3.66 0-7.17 1.452-9.758 4.035a13.767 13.767 0 0 0-4.042 9.743V63c0-2.74 1.09-5.369 3.031-7.307a10.359 10.359 0 0 1 7.319-3.026H70V1zM1 1h20.7c3.66 0 7.17 1.452 9.758 4.035a13.767 13.767 0 0 1 4.042 9.743V63c0-2.74-1.09-5.369-3.031-7.307a10.359 10.359 0 0 0-7.319-3.026H1V1z" stroke="#000" stroke-width="2" stroke-linecap="round" stroke-linejoin="round">
        </path>
        <path d="M25 15H8M63 15H46M25 23H8M63 23H46M25 31H8M63 31H46M25 39H8M54 39h-8" stroke="#000" stroke-width="2">
        </path>
    </svg>
    <svg width="73" height="58" viewBox="-2 -2 73 58" fill="none" id="company-vacancies" y="233">
        <rect x="1" y="12" width="67" height="41" rx="3" stroke="#000" stroke-width="2">
        </rect>
        <path d="M19.328 4a3 3 0 0 1 3-3h24.344a3 3 0 0 1 3 3v7.96H19.328V4zM19 32.5a2.5 2.5 0 0 0 5 0V29h-5v3.5zM45 32.5a2.5 2.5 0 0 0 5 0V29h-5v3.5zM1 25h67M1 29h67" stroke="#000" stroke-width="2">
        </path>
    </svg>
    <svg width="34" height="34" viewBox="-2 -2 34 34" fill="none" id="cradit-plan" y="291">
        <path d="M26.862 10.312a.75.75 0 1 1-1.396.549 11.167 11.167 0 0 0-.83-1.681.75.75 0 0 1 1.285-.775c.365.606.68 1.243.94 1.907zM27.74 15.575a.75.75 0 0 1-1.499-.068c.029-.623.005-1.249-.072-1.873a.75.75 0 0 1 1.489-.183c.087.708.114 1.418.082 2.124zM26.377 20.75a.75.75 0 1 1-1.338-.679c.283-.558.519-1.14.705-1.737a.75.75 0 0 1 1.432.447 12.779 12.779 0 0 1-.8 1.968zM23.05 24.884a.75.75 0 0 1-.948-1.162 11.25 11.25 0 0 0 1.35-1.302.75.75 0 0 1 1.127.99c-.468.532-.98 1.026-1.53 1.474zM18.385 27.285a.75.75 0 0 1-.397-1.447 11.266 11.266 0 0 0 1.76-.645.75.75 0 1 1 .632 1.36c-.64.298-1.307.543-1.995.732zM14.33 6.877a.75.75 0 0 1 .744.648l.007.102-.001 7.255 6.71 3.478a.75.75 0 0 1 .362.917l-.041.093a.75.75 0 0 1-.918.362l-.093-.04-7.52-3.897V7.627a.75.75 0 0 1 .75-.75z" fill="#231F20">
        </path>
        <path fill-rule="evenodd" clip-rule="evenodd" d="M3.692 15.028c0-6.216 5.039-11.255 11.255-11.255a11.2 11.2 0 0 1 5.704 1.55l-.707 1.047a.5.5 0 0 0 .44.78l3.33-.168a.5.5 0 0 0 .447-.663L23.067 3.17a.5.5 0 0 0-.887-.116l-.69 1.024a12.699 12.699 0 0 0-6.544-1.805c-7.044 0-12.755 5.711-12.755 12.755 0 7.045 5.71 12.755 12.755 12.755.118 0 .235-.001.353-.004a.75.75 0 0 0-.041-1.5c-.104.003-.208.005-.312.005-6.216 0-11.255-5.04-11.255-11.255z" fill="#231F20">
        </path>
    </svg>
    <svg width="34" height="34" viewBox="-2 -2 34 34" fill="none" id="credit-calculator" y="325">
        <path fill-rule="evenodd" clip-rule="evenodd" d="M23 3a4 4 0 0 1 4 4v16a4 4 0 0 1-4 4H7a4 4 0 0 1-4-4V7a4 4 0 0 1 4-4h16zm-8.75 12.75H4.5V23a2.5 2.5 0 0 0 2.336 2.495L7 25.5h7.25v-9.75zm1.5 0h9.75V23l-.005.164A2.5 2.5 0 0 1 23 25.5h-7.25v-9.75zM14.25 4.5H7a2.5 2.5 0 0 0-2.495 2.336L4.5 7v7.25h9.75V4.5zm1.5 0H23l.164.005A2.5 2.5 0 0 1 25.5 7v7.25h-9.75V4.5zm-5.637 2.268a.75.75 0 0 0-1.493.102v1.75H6.87l-.102.007a.75.75 0 0 0 .102 1.493h1.75v1.75l.007.102a.75.75 0 0 0 1.493-.102v-1.75h1.75l.102-.007a.75.75 0 0 0-.102-1.493h-1.75V6.87l-.007-.102zm12.609 3.345a.75.75 0 0 0-.102-1.493h-4l-.102.007a.75.75 0 0 0 .102 1.493h4l.102-.007zm0 9.98a.75.75 0 0 0-.102-1.493h-4l-.102.007a.75.75 0 0 0 .102 1.493h4l.102-.007zm0 2.544a.75.75 0 0 0-.102-1.493h-4l-.102.007a.75.75 0 0 0 .102 1.493h4l.102-.007zM7.22 18.47a.75.75 0 0 0-.067.983l.067.077 1.09 1.091-1.09 1.091-.067.077a.75.75 0 0 0 1.127.984l1.091-1.091 1.091 1.091a.75.75 0 0 0 1.128-.984l-.067-.077-1.091-1.09 1.091-1.092.067-.077a.75.75 0 0 0-1.128-.983l-1.09 1.09-1.092-1.09a.75.75 0 0 0-1.06 0z" fill="#231F20">
        </path>
    </svg>
    <svg width="34" height="34" viewBox="-2 -2 34 34" fill="none" id="credit-calendar" y="359">
        <path fill-rule="evenodd" clip-rule="evenodd" d="M26 25.5a1 1 0 0 0 1-1v-19a1 1 0 0 0-1-1h-3.5v-1A.5.5 0 0 0 22 3h-.5a.5.5 0 0 0-.5.5v1H9v-1a.5.5 0 0 0-.5-.5H8a.5.5 0 0 0-.5.5v1H4a1 1 0 0 0-1 1v19a1 1 0 0 0 1 1h22zM25.5 9h-21V6h3v1a.5.5 0 0 0 .5.5h.5A.5.5 0 0 0 9 7V6h12v1a.5.5 0 0 0 .5.5h.5a.5.5 0 0 0 .5-.5V6h3v3zm-21 15h21V10.5h-21V24zM13 13.5a.5.5 0 0 0 .5-.5v-.5a.5.5 0 0 0-.5-.5h-.5a.5.5 0 0 0-.5.5v.5a.5.5 0 0 0 .5.5h.5zm9.5-.5a.5.5 0 0 1-.5.5h-.5a.5.5 0 0 1-.5-.5v-.5a.5.5 0 0 1 .5-.5h.5a.5.5 0 0 1 .5.5v.5zm-5 .5a.5.5 0 0 0 .5-.5v-.5a.5.5 0 0 0-.5-.5H17a.5.5 0 0 0-.5.5v.5a.5.5 0 0 0 .5.5h.5zm-4 2.5a.5.5 0 0 1-.5.5h-.5a.5.5 0 0 1-.5-.5v-.5a.5.5 0 0 1 .5-.5h.5a.5.5 0 0 1 .5.5v.5zm-5 .5A.5.5 0 0 0 9 16v-.5a.5.5 0 0 0-.5-.5H8a.5.5 0 0 0-.5.5v.5a.5.5 0 0 0 .5.5h.5zm14-.5a.5.5 0 0 1-.5.5h-.5a.5.5 0 0 1-.5-.5v-.5a.5.5 0 0 1 .5-.5h.5a.5.5 0 0 1 .5.5v.5zm-5 .5a.5.5 0 0 0 .5-.5v-.5a.5.5 0 0 0-.5-.5H17a.5.5 0 0 0-.5.5v.5a.5.5 0 0 0 .5.5h.5zm-4 2.5a.5.5 0 0 1-.5.5h-.5a.5.5 0 0 1-.5-.5v-.5a.5.5 0 0 1 .5-.5h.5a.5.5 0 0 1 .5.5v.5zm-5 .5A.5.5 0 0 0 9 19v-.5a.5.5 0 0 0-.5-.5H8a.5.5 0 0 0-.5.5v.5a.5.5 0 0 0 .5.5h.5zm14-.5a.5.5 0 0 1-.5.5h-.5a.5.5 0 0 1-.5-.5v-.5a.5.5 0 0 1 .5-.5h.5a.5.5 0 0 1 .5.5v.5zm-5 .5a.5.5 0 0 0 .5-.5v-.5a.5.5 0 0 0-.5-.5H17a.5.5 0 0 0-.5.5v.5a.5.5 0 0 0 .5.5h.5zM18 22a.5.5 0 0 1-.5.5H17a.5.5 0 0 1-.5-.5v-.5a.5.5 0 0 1 .5-.5h.5a.5.5 0 0 1 .5.5v.5zm-5 .5a.5.5 0 0 0 .5-.5v-.5a.5.5 0 0 0-.5-.5h-.5a.5.5 0 0 0-.5.5v.5a.5.5 0 0 0 .5.5h.5zM9 22a.5.5 0 0 1-.5.5H8a.5.5 0 0 1-.5-.5v-.5A.5.5 0 0 1 8 21h.5a.5.5 0 0 1 .5.5v.5z" fill="#231F20">
        </path>
    </svg>
    <svg width="34" height="34" viewBox="-2 -2 34 34" fill="none" id="credit-percent" y="393">
        <path fill-rule="evenodd" clip-rule="evenodd" d="M27 7a4 4 0 0 0-4-4H7a4 4 0 0 0-4 4v16a4 4 0 0 0 4 4h16a4 4 0 0 0 4-4V7zM4.505 6.836A2.5 2.5 0 0 1 7 4.5h16l.164.005A2.5 2.5 0 0 1 25.5 7v16l-.005.164A2.5 2.5 0 0 1 23 25.5H7l-.164-.005A2.5 2.5 0 0 1 4.5 23V7l.005-.164zm8.271 13.458l6.604-10.6h-2.142l-6.604 10.6h2.142zM13 12.5a3 3 0 1 0-6 0 3 3 0 0 0 6 0zm-4.5 0a1.5 1.5 0 1 1 3 0 1.5 1.5 0 0 1-3 0zm14.5 5a3 3 0 1 0-6 0 3 3 0 0 0 6 0zm-4.5 0a1.5 1.5 0 1 1 3 0 1.5 1.5 0 0 1-3 0z" fill="#231F20">
        </path>
    </svg>
    <svg width="28" height="28" viewBox="-2 -2 28 28" fill="none" id="d-bonus" y="427">
        <path fill-rule="evenodd" clip-rule="evenodd" d="M18.091 3.511a5.11 5.11 0 0 0-4.749 3.2l-10.97.001c-.868 0-1.572.7-1.572 1.561v9.366c0 .862.704 1.561 1.572 1.561h14.933c.869 0 1.572-.699 1.572-1.56v-4.042c2.449-.376 4.323-2.477 4.323-5.014 0-2.801-2.287-5.073-5.109-5.073zm.787 8.586v.312c1.793-.362 3.143-1.937 3.143-3.825 0-2.155-1.76-3.902-3.93-3.902-2.118 0-3.844 1.664-3.927 3.747.083 2.083 1.81 3.747 3.927 3.747.27 0 .533-.027.787-.079zm-5.896-3.824l.003.147c-.002.055-.002.11-.002.164 0 2.671 2.078 4.86 4.716 5.059v.874H1.979V8.273l.006-.07a.392.392 0 0 1 .387-.32l10.627-.002-.01.128a5.157 5.157 0 0 0-.007.264zM1.98 15.688v1.951c0 .192.139.351.322.384l.071.006h14.933a.392.392 0 0 0 .387-.32l.006-.07v-1.951H1.98zm15.768-8.752A1.24 1.24 0 0 0 16.504 5.7a1.24 1.24 0 0 0-1.244 1.235 1.24 1.24 0 0 0 1.244 1.235 1.24 1.24 0 0 0 1.243-1.235zm-1.658 0c0-.227.186-.412.415-.412.228 0 .414.185.414.412a.414.414 0 0 1-.414.412.414.414 0 0 1-.415-.412zm2.488 3.293a1.24 1.24 0 0 1 1.243-1.235 1.24 1.24 0 0 1 1.244 1.235 1.24 1.24 0 0 1-1.244 1.235 1.24 1.24 0 0 1-1.243-1.235zm.829 0a.414.414 0 1 0 .83 0 .414.414 0 0 0-.416-.411.414.414 0 0 0-.414.411zm-3.04.618l2.873-4.94a.416.416 0 0 1 .566-.151.41.41 0 0 1 .152.562l-2.872 4.94a.415.415 0 0 1-.566.151.41.41 0 0 1-.152-.562z" fill="#231F20">
        </path>
    </svg>
    <svg width="28" height="28" viewBox="-2 -2 28 28" fill="none" id="d-chat" y="455">
        <path fill-rule="evenodd" clip-rule="evenodd" d="M19.858 4.013c.962.004 1.68.742 1.727 1.695l.01.914.005 2.82-.006 5.792c-.01 1.322-.681 1.993-2.017 1.995-.807.003-1.868.002-3.008 0-2.158-.002-4.596-.004-6.125.016a1.984 1.984 0 0 0-1.054.352c-.658.466-1.306.943-1.952 1.424L5.5 20.466l-.067.048-.443.286-.004-2.016c0-.162.002-.322.003-.482l.007-.478c.006-.338-.027-.544-.387-.644l-.097-.022c-.775-.155-1.297-.844-1.301-1.647-.015-2.723-.018-7.034-.002-9.757.004-.985.745-1.74 1.734-1.744 4.263-.014 10.651-.013 14.914.003zm-.004 1.19c-4.236-.015-10.62-.016-14.905-.002-.322.001-.537.219-.539.56l-.007 1.741-.003 4.27.008 2.78.004.953c.002.263.145.447.336.485 1.055.208 1.467.9 1.45 1.857l-.01.615 1.397-1.035.802-.581.302-.216a3.21 3.21 0 0 1 1.557-.567l.182-.009 2.292-.013 2.024-.004 4.831.001c.636 0 .797-.126.817-.704l.006-1.875-.012-7.693c-.015-.314-.196-.52-.453-.557l-.08-.005zM7.72 7.72a.52.52 0 1 0 0 1.04h9.36a.52.52 0 1 0 0-1.04H7.72zm0 2.4a.52.52 0 1 0 0 1.04h9.36a.52.52 0 1 0 0-1.04H7.72zm-.52 2.92a.52.52 0 0 1 .52-.52h6.16a.52.52 0 1 1 0 1.04H7.72a.52.52 0 0 1-.52-.52z" fill="#231F20">
        </path>
    </svg>
    <svg width="28" height="28" viewBox="-2 -2 28 28" fill="none" id="d-location" y="483">
        <path fill-rule="evenodd" clip-rule="evenodd" d="M12 1.6c4.411 0 8 3.473 8 7.741 0 2.515-1.271 5.452-3.779 8.73l-.306.394-.152.191-.301.372-.297.355-.29.339-.282.32-.403.448-.253.273-.46.483-.552.555-.429.409a.733.733 0 0 1-.496.19.739.739 0 0 1-.434-.14l-.084-.07-.345-.342-.518-.537-.443-.476-.373-.413-.266-.301-.418-.486-.289-.347-.296-.362-.301-.378-.304-.392-.153-.202C5.27 14.626 4 11.728 4 9.341c0-4.268 3.589-7.74 8-7.74zm0 1.2c-3.757 0-6.8 2.944-6.8 6.541 0 2.08 1.171 4.753 3.535 7.891a38.196 38.196 0 0 0 2.44 2.917l.29.312.384.4.157.16.27-.266.263-.266.291-.302c.83-.87 1.66-1.827 2.438-2.844C17.63 14.255 18.8 11.55 18.8 9.34c0-3.597-3.043-6.54-6.8-6.54zm0 1.848A4.516 4.516 0 0 0 7.489 9.16 4.516 4.516 0 0 0 12 13.672a4.516 4.516 0 0 0 4.511-4.512A4.516 4.516 0 0 0 12 4.648zm0 1.2a3.316 3.316 0 0 1 3.311 3.312A3.316 3.316 0 0 1 12 12.472 3.316 3.316 0 0 1 8.689 9.16 3.316 3.316 0 0 1 12 5.848z" fill="#231F20">
        </path>
    </svg>
    <svg width="28" height="28" viewBox="-2 -2 28 28" fill="none" id="d-mail" y="511">
        <path fill-rule="evenodd" clip-rule="evenodd" d="M20 4.8a2.39 2.39 0 0 1 1.99 1.058A2.39 2.39 0 0 1 22.4 7.2v9.6a2.4 2.4 0 0 1-2.4 2.4H4a2.4 2.4 0 0 1-2.4-2.4V7.2A2.4 2.4 0 0 1 4 4.8h16zm-.6 1.5c.214 0 .418.045.603.126l-7.215 6.28-.087.069a1.2 1.2 0 0 1-1.489-.07l-7.214-6.28c.184-.08.388-.125.602-.125h14.8zM3.1 7.8c0-.172.03-.338.083-.492l5.496 4.783L3.1 15.842V7.8zm.293 9.291c.274.37.712.609 1.207.609h14.8c.494 0 .933-.239 1.206-.608l-6.223-4.184-.807.703a2.4 2.4 0 0 1-3.152 0l-.808-.704-6.223 4.184zm11.928-4.999l5.58 3.752V7.8c0-.172-.03-.338-.084-.492l-5.496 4.784z" fill="#231F20">
        </path>
    </svg>
    <svg width="28" height="28" viewBox="-2 -2 28 28" fill="none" id="d-order" y="539">
        <path fill-rule="evenodd" clip-rule="evenodd" d="M22.392 7.372a.612.612 0 0 0-.03-.184.25.25 0 0 0-.036-.059l-.02-.03-.011-.018-.002-.003a.576.576 0 0 0-.275-.233c-.002 0-.003-.002-.004-.003l-.004-.003-10.4-4.399a.587.587 0 0 0-.446.008l-8.4 3.6a.03.03 0 0 0-.01.008.03.03 0 0 1-.01.008.58.58 0 0 0-.21.177.627.627 0 0 0-.046.064.192.192 0 0 1-.018.024c-.008.01-.017.02-.022.034a.602.602 0 0 0-.048.235V17.4a.6.6 0 0 0 .364.553l9.2 4.4a.597.597 0 0 0 .447.01l.022-.009 9.578-3.591a.6.6 0 0 0 .389-.562V7.4a.033.033 0 0 0-.005-.015c-.002-.004-.003-.009-.003-.013zM11.6 20.889l-8-3.885V7.51l8 3.886v9.493zM4.524 6.6l7.69 3.754 1.94-.726-2.182-.902a.603.603 0 0 1-.006-1.11l2.353-1a.59.59 0 0 1 .527-.02l3.367 1.509 1.878-.705-8.677-3.752L4.524 6.6zM16.4 10.065l1.2-.45v2.924l-1.2.45v-2.924zM13.75 8.16l2.052.846.814-.304L14.6 7.8l-.85.361zm7.45 9.622l-8.4 3.15v-9.518l2.4-.9v3.34a.603.603 0 0 0 .6.6c.07 0 .143-.012.211-.038l2.4-.9a.601.601 0 0 0 .389-.561V9.165l2.4-.9v9.518zM5.634 15.48l4.22 2.006a.6.6 0 1 1-.468 1.104l-4.22-2.006a.6.6 0 0 1 .468-1.104z" fill="#231F20">
        </path>
    </svg>
    <svg width="28" height="28" viewBox="-2 -2 28 28" fill="none" id="d-secure" y="567">
        <path fill-rule="evenodd" clip-rule="evenodd" d="M21.578 6.878l-.001-.018c-.01-.215-.017-.443-.02-.696a2.38 2.38 0 0 0-2.25-2.326c-2.593-.143-4.598-.983-6.312-2.642l-.014-.014a1.45 1.45 0 0 0-1.961 0l-.015.014C9.292 2.855 7.286 3.695 4.694 3.838a2.38 2.38 0 0 0-2.25 2.326c-.004.252-.01.48-.02.696l-.002.04c-.05 2.627-.113 5.895.988 8.862.605 1.631 1.522 3.05 2.724 4.215 1.37 1.328 3.163 2.381 5.33 3.133a1.63 1.63 0 0 0 1.073 0c2.165-.753 3.957-1.807 5.325-3.135 1.201-1.166 2.118-2.585 2.724-4.216 1.104-2.976 1.042-6.25.992-8.881zm-2.234 8.426c-1.16 3.127-3.53 5.274-7.244 6.564a.307.307 0 0 1-.2 0c-3.717-1.287-6.089-3.434-7.249-6.56-1.014-2.735-.956-5.735-.906-8.381V6.91c.01-.227.018-.465.022-.727a1.058 1.058 0 0 1 1-1.033c1.468-.082 2.756-.363 3.94-.861 1.183-.498 2.233-1.199 3.211-2.143a.123.123 0 0 1 .164 0c.978.944 2.028 1.646 3.21 2.143 1.185.498 2.474.78 3.94.86.554.032.994.485 1.002 1.034.004.263.01.501.02.727.051 2.65.107 5.653-.91 8.393zM12 7.345c-1.652 0-2.995 1.335-2.995 2.975 0 .967.467 1.859 1.243 2.414l-.015 2.125v.004c0 .963.788 1.747 1.758 1.747.968 0 1.757-.782 1.758-1.744l.016-2.142a2.965 2.965 0 0 0 1.23-2.404c0-1.64-1.344-2.975-2.995-2.975zm.426 7.519a.434.434 0 0 1-.87.001l.017-2.445a.656.656 0 0 0-.35-.63 1.657 1.657 0 0 1-.895-1.47c0-.915.75-1.66 1.672-1.66.921 0 1.671.745 1.671 1.66 0 .614-.339 1.176-.884 1.466a.656.656 0 0 0-.344.667l-.017 2.406v.005z" fill="#231F20">
        </path>
    </svg>
    <svg width="28" height="28" viewBox="-2 -2 28 28" fill="none" id="d-stores" y="595">
        <path fill-rule="evenodd" clip-rule="evenodd" d="M7.484 8V5.2h3.927V8l-.004.132a2.012 2.012 0 0 1-.379 1.055l-.01.013a1.95 1.95 0 0 1-1.57.8l-.13-.004C8.294 9.928 7.484 9.06 7.484 8zm-2.735 3.173a3.131 3.131 0 0 0 2.146-1.307A3.12 3.12 0 0 0 9.447 11.2 3.12 3.12 0 0 0 12 9.866a3.12 3.12 0 0 0 2.553 1.334 3.12 3.12 0 0 0 2.552-1.334 3.131 3.131 0 0 0 2.146 1.307V18.4l-.007.072a.395.395 0 0 1-.386.328h-2.356v-4.4c0-.884-.704-1.6-1.571-1.6H9.069c-.868 0-1.57.716-1.57 1.6v4.4H5.141l-.07-.006a.398.398 0 0 1-.323-.394v-7.227zm-1.178-.07C2.208 10.753 1.2 9.496 1.2 8V4.8c0-.442.352-.8.785-.8h20.03c.433 0 .785.358.785.8V8c0 1.496-1.009 2.753-2.371 3.103V18.4c0 .884-.703 1.6-1.57 1.6H5.141c-.868 0-1.571-.716-1.571-1.6v-7.297zm.82-1.104A1.95 1.95 0 0 0 5.912 9.2l.01-.013c.216-.3.353-.662.378-1.055L6.305 8V5.2H2.378V8c0 .826.492 1.535 1.193 1.84.199.087.415.14.642.156l.129.004h.048zm14.86-.042c.09.02.183.032.278.039l-.278-.04zm.278.039l.13.004a1.927 1.927 0 0 0 .77-.16 2 2 0 0 0 1.189-1.708L21.622 8V5.2h-3.927V8c0 .962.667 1.766 1.556 1.957M16.516 8l-.004.132a2.012 2.012 0 0 1-.378 1.054l-.01.014c-.358.486-.929.8-1.571.8l-.13-.004C13.4 9.928 12.59 9.06 12.59 8V5.2h3.927V8zm-1.192 6.4v4.4H8.676v-4.4c0-.196.14-.36.322-.394L9.07 14h5.862c.193 0 .353.142.386.328l.007.072z" fill="#231F20">
        </path>
    </svg>
    <svg width="28" height="28" viewBox="-2 -2 28 28" fill="none" id="delivery" y="623">
        <path fill-rule="evenodd" clip-rule="evenodd" d="M14.855 4c.442 0 .8.354.8.79v.423h3.03c.362 0 .692.192.87.497l.047.094 1.645 3.698 1.392 1.82c.105.136.161.303.161.474v5.142c0 .437-.359.79-.8.79h-2.226a2.791 2.791 0 0 1-2.604 2.268l-.154.004a2.796 2.796 0 0 1-2.733-2.149l-.025-.122h-3.292a2.791 2.791 0 0 1-2.605 2.267L8.208 20a2.796 2.796 0 0 1-2.733-2.149l-.026-.122H3.802a.597.597 0 0 1-.6-.593c0-.3.226-.548.519-.587l.081-.006h1.691l.034-.119a2.798 2.798 0 0 1 2.527-1.95l.154-.005a2.8 2.8 0 0 1 2.68 1.956l.034.117h3.38l.027-.095a2.797 2.797 0 0 1 2.533-1.974l.154-.004a2.8 2.8 0 0 1 2.688 1.979l.026.094h1.868v-4.616l-.944-1.24h-5.8a.398.398 0 0 1-.4-.394V5.184l-10.652.001a.598.598 0 0 1-.595-.512l-.005-.08c0-.3.226-.548.519-.588L3.802 4h11.053zm2.161 11.654c-.884 0-1.601.708-1.601 1.58 0 .873.717 1.58 1.601 1.58.885 0 1.602-.707 1.602-1.58 0-.872-.717-1.58-1.602-1.58zm-10.41 1.58c0-.872.717-1.58 1.602-1.58.884 0 1.601.708 1.601 1.58 0 .873-.717 1.58-1.601 1.58a1.591 1.591 0 0 1-1.602-1.58zm-.003-4.509a.597.597 0 0 1 .604.59.595.595 0 0 1-.517.59l-.081.005-4.052.023a.597.597 0 0 1-.603-.59.595.595 0 0 1 .516-.59l.081-.005 4.052-.023zm2.205-2.204a.597.597 0 0 0-.6-.593H1.8l-.082.006a.595.595 0 0 0-.519.587c0 .327.269.593.6.593h6.408l.081-.006a.595.595 0 0 0 .52-.587zm6.847-4.123v3.104h4.28l-1.38-3.104h-2.9zM9.797 7.723a.597.597 0 0 0-.6-.592H2.554l-.081.005a.595.595 0 0 0-.52.587c0 .328.27.593.601.593h6.643l.081-.005a.595.595 0 0 0 .52-.588z" fill="#231F20">
        </path>
    </svg>
    <svg width="24" height="24" viewBox="-2 -2 24 24" fill="none" id="disabled" y="651">
        <circle cx="10" cy="10" r="10" fill="#DC092E">
        </circle>
        <path fill-rule="evenodd" clip-rule="evenodd" d="M15 6.111L13.889 5 10 8.889 6.111 5 5 6.111 8.889 10 5 13.889 6.111 15 10 11.111 13.889 15 15 13.889 11.111 10 15 6.111z" fill="#fff">
        </path>
    </svg>
    <svg width="20" height="20" viewBox="-2 -2 20 20" fill="none" id="discounts" y="675">
        <path opacity=".01" fill="#D8D8D8" d="M0 0h16v16H0z">
        </path>
        <path fill-rule="evenodd" clip-rule="evenodd" d="M15.229 7.793a.452.452 0 0 0 0 .414l.622 1.221c.346.68.071 1.49-.625 1.845l-1.251.636a.47.47 0 0 0-.254.336l-.245 1.338c-.136.745-.854 1.246-1.635 1.14l-1.402-.19a.502.502 0 0 0-.41.128l-1.018.944A1.482 1.482 0 0 1 8 16c-.364 0-.727-.132-1.01-.395l-1.018-.944a.502.502 0 0 0-.411-.128l-1.402.19c-.07.01-.14.014-.208.014-.697 0-1.303-.476-1.427-1.154l-.245-1.338a.47.47 0 0 0-.254-.336l-1.25-.636c-.697-.355-.972-1.165-.625-1.845l.621-1.22a.452.452 0 0 0 0-.415L.15 6.573c-.347-.68-.072-1.49.624-1.845l1.251-.637a.47.47 0 0 0 .254-.336l.245-1.338c.136-.745.854-1.246 1.635-1.14l1.402.19a.502.502 0 0 0 .41-.128L6.99.395a1.492 1.492 0 0 1 2.022 0l1.017.944c.11.102.26.149.411.128l1.402-.19c.78-.106 1.5.395 1.635 1.14l.245 1.338a.47.47 0 0 0 .254.336l1.25.637c.697.354.972 1.164.626 1.844l-.622 1.22zM6.077 3.59c.972 0 1.763.806 1.763 1.798 0 .99-.791 1.797-1.763 1.797-.973 0-1.764-.806-1.764-1.797 0-.992.791-1.798 1.764-1.798zm-.91 7.994a.475.475 0 0 1-.68 0 .497.497 0 0 1 0-.693l6.347-6.47a.474.474 0 0 1 .68 0 .497.497 0 0 1 0 .692l-6.348 6.471zm2.993-.967c0 .991.791 1.797 1.763 1.797.973 0 1.764-.806 1.764-1.797 0-.991-.791-1.798-1.764-1.798-.972 0-1.763.807-1.763 1.798zm-2.885-5.23c0-.45.36-.817.802-.817a.81.81 0 0 1 .801.818.81.81 0 0 1-.801.817.81.81 0 0 1-.802-.817zm3.847 5.23c0-.45.36-.817.801-.817a.81.81 0 0 1 .802.817.81.81 0 0 1-.802.817.81.81 0 0 1-.801-.817z" fill="#DC092E">
        </path>
    </svg>
    <svg width="20" height="20" viewBox="-2 -2 20 20" fill="none" id="discounts-active" y="695">
        <path opacity=".01" fill="#D8D8D8" d="M0 0h16v16H0z">
        </path>
        <path fill-rule="evenodd" clip-rule="evenodd" d="M15.229 7.793a.452.452 0 0 0 0 .414l.622 1.221c.346.68.071 1.49-.625 1.845l-1.251.636a.47.47 0 0 0-.254.336l-.245 1.338c-.136.745-.854 1.246-1.635 1.14l-1.402-.19a.502.502 0 0 0-.41.128l-1.018.944A1.482 1.482 0 0 1 8 16c-.364 0-.727-.132-1.01-.395l-1.018-.944a.502.502 0 0 0-.411-.128l-1.402.19c-.07.01-.14.014-.208.014-.697 0-1.303-.476-1.427-1.154l-.245-1.338a.47.47 0 0 0-.254-.336l-1.25-.636c-.697-.355-.972-1.165-.625-1.845l.621-1.22a.452.452 0 0 0 0-.415L.15 6.573c-.347-.68-.072-1.49.624-1.845l1.251-.637a.47.47 0 0 0 .254-.336l.245-1.338c.136-.745.854-1.246 1.635-1.14l1.402.19a.502.502 0 0 0 .41-.128L6.99.395a1.492 1.492 0 0 1 2.022 0l1.017.944c.11.102.26.149.411.128l1.402-.19c.78-.106 1.5.395 1.635 1.14l.245 1.338a.47.47 0 0 0 .254.336l1.25.637c.697.354.972 1.164.626 1.844l-.622 1.22zM6.077 3.59c.972 0 1.763.806 1.763 1.798 0 .99-.791 1.797-1.763 1.797-.973 0-1.764-.806-1.764-1.797 0-.992.791-1.798 1.764-1.798zm-.91 7.994a.475.475 0 0 1-.68 0 .497.497 0 0 1 0-.693l6.347-6.47a.474.474 0 0 1 .68 0 .497.497 0 0 1 0 .692l-6.348 6.471zm2.993-.967c0 .991.791 1.797 1.763 1.797.973 0 1.764-.806 1.764-1.797 0-.991-.791-1.798-1.764-1.798-.972 0-1.763.807-1.763 1.798zm-2.885-5.23c0-.45.36-.817.802-.817a.81.81 0 0 1 .801.818.81.81 0 0 1-.801.817.81.81 0 0 1-.802-.817zm3.847 5.23c0-.45.36-.817.801-.817a.81.81 0 0 1 .802.817.81.81 0 0 1-.802.817.81.81 0 0 1-.801-.817z" fill="#fff">
        </path>
    </svg>
    <svg width="16" height="13" viewBox="-2 -2 16 13" fill="none" id="done-marker" y="715">
        <path d="M4.086 9L0 5.023l1.346-1.307 2.74 2.652L10.655 0 12 1.306 4.086 9z" fill="#DC092E">
        </path>
    </svg>
    <svg width="44" height="44" viewBox="-2 -2 44 44" fill="none" id="file-download" y="728">
        <path d="M30.712 19.838v-5.171m0 0L19.835 4m10.877 10.667H24.45c-3.626 0-4.615-1.94-4.615-4.526V4m0 0H9.29C5.334 4 5.334 5.616 5.334 7.879v23.919C5.333 34.708 6.98 36 9.617 36h12.524m-9.887-7.111h8.24m-8.24-7.434H24.12m-11.865-7.112h2.636m15.82 11.96V36m0 0l3.956-3.879M30.712 36l-3.955-3.879" stroke="#007EFF" stroke-width="1.6" stroke-linecap="round" stroke-linejoin="round">
        </path>
    </svg>
    <svg width="23" height="28" viewBox="-2 -2 23 28" fill="none" id="hot" y="772">
        <path d="M3.81 21.831C2.652 20.58 1.494 19.278.757 17.725a8.887 8.887 0 0 1-.58-5.357C.548 10.565 1.39 8.863 2.6 7.41c-.106 1.251.368 2.553 1.263 3.505-.526-2.404.316-5.008 2-6.91C7.55 2.103 9.866.85 12.288 0c-1.21 1.202-1.369 3.104-.895 4.707.474 1.602 1.474 3.004 2.37 4.456.894 1.452 1.737 2.954 1.79 4.607.473-.851 1-1.703 1.316-2.654.316-.951.474-1.953.21-2.904.948 1.101 1.474 2.203 1.738 3.605.263 1.402.21 2.854.052 4.256-.21 1.552-.631 3.154-1.526 4.456-1.053 1.552-2.738 2.654-4.581 3.255-3.264.55-6.476.1-8.95-1.953z" fill="#DC092E">
        </path>
        <path d="M7.355 23.683c4.163 1.616 8.276-3.282 5.991-7.069 0-.05-.05-.05-.05-.1.202 2.07-.305 3.584-1.27 4.442.508-1.211.152-2.625-.457-3.837-.61-1.161-1.473-2.221-2.133-3.332-.66-1.162-1.167-2.474-.863-3.787-1.218.909-2.082 2.272-2.437 3.736-.355 1.464-.152 3.08.508 4.444-.762-.556-1.32-1.465-1.371-2.424-.813.96-1.32 2.221-1.27 3.484 0 1.969 1.574 3.736 3.352 4.443z" fill="#fff">
        </path>
    </svg>
    <svg width="28" height="28" viewBox="-2 -2 28 28" fill="none" id="info" y="800">
        <path fill-rule="evenodd" clip-rule="evenodd" d="M12.15 2.4c.9 0 1.766.115 2.595.345a9.704 9.704 0 0 1 5.83 4.479 9.79 9.79 0 0 1 .98 2.331c.23.83.345 1.694.345 2.595 0 .9-.115 1.765-.345 2.595a9.706 9.706 0 0 1-4.479 5.83 9.791 9.791 0 0 1-2.33.98c-.83.23-1.695.345-2.596.345-.9 0-1.765-.115-2.595-.345a9.706 9.706 0 0 1-5.83-4.479 9.79 9.79 0 0 1-.98-2.331A9.658 9.658 0 0 1 2.4 12.15c0-.9.115-1.766.346-2.595a9.703 9.703 0 0 1 4.479-5.83 9.792 9.792 0 0 1 2.33-.98A9.659 9.659 0 0 1 12.15 2.4zm0 1.2c-.793 0-1.55.1-2.274.301A8.503 8.503 0 0 0 4.762 7.83a8.592 8.592 0 0 0-.86 2.047A8.46 8.46 0 0 0 3.6 12.15c0 .793.101 1.55.302 2.274a8.503 8.503 0 0 0 3.928 5.114 8.59 8.59 0 0 0 2.046.86c.724.201 1.481.302 2.274.302.794 0 1.55-.1 2.274-.302a8.5 8.5 0 0 0 5.114-3.928c.372-.634.658-1.316.86-2.046.202-.724.302-1.48.302-2.274 0-.793-.1-1.55-.301-2.274a8.502 8.502 0 0 0-3.928-5.114 8.592 8.592 0 0 0-2.047-.86A8.46 8.46 0 0 0 12.15 3.6zm.15 5.3a.5.5 0 0 0 .5-.5v-.3a.5.5 0 0 0-.5-.5H12a.5.5 0 0 0-.5.5v.3a.5.5 0 0 0 .5.5h.3zm0 7.8a.5.5 0 0 0 .5-.5v-5.5a.5.5 0 0 0-.5-.5H12a.5.5 0 0 0-.5.5v5.5a.5.5 0 0 0 .5.5h.3z" fill="#231F20">
        </path>
    </svg>
    <svg width="28" height="28" viewBox="-2 -2 28 28" fill="none" id="installment" y="828">
        <path d="M11.387 1.811a.6.6 0 0 1 .074 1.198c-.497.03-.993.102-1.485.216a.6.6 0 1 1-.27-1.17c.556-.128 1.118-.21 1.681-.244zM15.59 2.446a.6.6 0 1 1-.423 1.122 8.984 8.984 0 0 0-1.442-.41.6.6 0 1 1 .23-1.177c.558.109 1.105.264 1.636.465z" fill="#979797">
        </path>
        <path fill-rule="evenodd" clip-rule="evenodd" d="M3.165 13.711c.854 4.39 4.764 7.41 9.094 7.28.482-.014.556 1.187-.002 1.201a10.166 10.166 0 0 1-5.58-1.497 1.696 1.696 0 0 1-.16-.09 10.217 10.217 0 0 1-4.719-8.608c-.007-4.79 3.378-9.067 8.256-10.015a.603.603 0 0 1 .062-.01 10.123 10.123 0 0 1 2.038-.173h.008a10.262 10.262 0 0 1 5.052 1.431l.42-.62a.5.5 0 0 1 .886.115l.765 2.205a.5.5 0 0 1-.448.663l-2.33.117a.5.5 0 0 1-.44-.78l.475-.703a8.987 8.987 0 0 0-2.825-1.062 9.001 9.001 0 0 0-3.078-.064l-.013.002a9.004 9.004 0 0 0-7.46 10.608zM21.49 8.25a.6.6 0 1 1-1.117.439 8.931 8.931 0 0 0-.664-1.345.6.6 0 0 1 1.028-.62c.292.486.544.995.753 1.526zm.702 4.21a.6.6 0 0 1-1.199-.054 8.955 8.955 0 0 0-.058-1.498.6.6 0 0 1 1.191-.147c.07.567.092 1.135.066 1.7zm-1.897 4.404a.6.6 0 0 0 .806-.264c.257-.506.471-1.033.64-1.575a.6.6 0 1 0-1.145-.358c-.15.479-.339.944-.565 1.39a.6.6 0 0 0 .264.807zm-1.855 3.043a.6.6 0 0 1-.758-.93c.388-.317.75-.665 1.08-1.042a.6.6 0 1 1 .901.792c-.374.426-.783.821-1.223 1.18zm-4.47 1.502a.6.6 0 0 0 .738.42c.55-.152 1.084-.348 1.596-.585a.6.6 0 1 0-.505-1.089c-.452.21-.922.382-1.409.516a.6.6 0 0 0-.42.738zM12.06 6.018a.6.6 0 0 0-1.195.082v6.534l6.016 3.117.075.033a.6.6 0 0 0 .734-.29l.032-.074a.6.6 0 0 0-.289-.734l-5.368-2.782V6.1l-.005-.082z" fill="#231F20">
        </path>
    </svg>
    <svg width="28" height="28" viewBox="-2 -2 28 28" fill="none" id="instruction" y="856">
        <path fill-rule="evenodd" clip-rule="evenodd" d="M20 20.8V3.2a.8.8 0 0 0-.8-.8H6.8c-.331 0-.642.062-.933.187a2.424 2.424 0 0 0-1.28 1.28c-.124.29-.187.602-.187.933v14.4c0 .331.063.642.188.933a2.425 2.425 0 0 0 1.28 1.28c.29.125.6.187.932.187h12.4a.8.8 0 0 0 .8-.8zM5.6 4.8c0-.169.031-.325.094-.469a1.22 1.22 0 0 1 .637-.637c.144-.063.3-.094.469-.094h12v13.2h-12a2.39 2.39 0 0 0-1.2.319V4.8zM12.2 6a.6.6 0 1 1 0 1.2.6.6 0 0 1 0-1.2zm.6 7.8V9a.6.6 0 1 0-1.2 0v4.8a.6.6 0 0 0 1.2 0zm-6 6.6h12V18h-12c-.169 0-.325.031-.469.094a1.22 1.22 0 0 0-.637.637c-.063.144-.094.3-.094.469 0 .169.031.325.094.469a1.218 1.218 0 0 0 .637.637c.144.063.3.094.469.094z" fill="#231F20">
        </path>
    </svg>
    <svg width="20" height="20" viewBox="-2 -2 20 20" id="life" y="884">
        <title>Icons/16x16/life</title>
        <path d="M9.27 1C10.92 2.552 12 5.115 12 8.014c0 2.882-1.066 5.432-2.702 6.986l-1.142-.798c1.107-1.56 1.796-3.756 1.796-6.188 0-2.45-.698-4.659-1.819-6.22L9.27 1zM6.357 9.527c.75 0 1.357.56 1.357 1.25s-.607 1.25-1.357 1.25S5 11.466 5 10.776s.608-1.25 1.357-1.25zm0-5.526c.75 0 1.357.56 1.357 1.25S7.107 6.5 6.357 6.5 5 5.94 5 5.25 5.608 4 6.357 4z" fill="#002395" fill-rule="evenodd">
        </path>
    </svg>
    <svg width="20" height="20" viewBox="-2 -2 20 20" fill="none" id="location" y="904">
        <path opacity=".01" fill="#D8D8D8" d="M0 0h16v16H0z">
        </path>
        <path fill-rule="evenodd" clip-rule="evenodd" d="M2.026 5.955C2.026 2.67 4.65 0 7.875 0s5.85 2.671 5.85 5.955c0 1.934-.93 4.194-2.764 6.716a26.345 26.345 0 0 1-2.723 3.183.521.521 0 0 1-.734-.008 29.202 29.202 0 0 1-2.718-3.266c-1.832-2.56-2.76-4.789-2.76-6.625zm2.99-.29a2.863 2.863 0 0 0 2.859 2.86 2.863 2.863 0 0 0 2.86-2.86 2.863 2.863 0 0 0-2.86-2.86 2.863 2.863 0 0 0-2.86 2.86z" fill="#DC092E">
        </path>
    </svg>
    <svg width="20" height="20" viewBox="-2 -2 20 20" fill="none" id="mail" y="924">
        <circle cx="8" cy="8" r="8" fill="#DC092E">
        </circle>
        <path d="M11.792 6.318l.058-.027V6a.79.79 0 0 0-.21-.54.706.706 0 0 0-.515-.227h-6.25a.706.706 0 0 0-.515.227.79.79 0 0 0-.21.54V6.291l.058.027 3.75 1.714.042.02.042-.02 3.75-1.714zm-7.5 1.268l-.142-.064V10a.79.79 0 0 0 .21.54c.135.144.32.227.515.227h6.25c.194 0 .38-.083.515-.227a.79.79 0 0 0 .21-.54V7.522l-.142.064-3.503 1.602a.492.492 0 0 1-.41 0L4.292 7.586zm-.67-2.932A1.718 1.718 0 0 1 4.875 4.1h6.25c.469 0 .92.199 1.253.554.333.356.522.84.522 1.346v4c0 .506-.189.99-.522 1.346a1.718 1.718 0 0 1-1.253.554h-6.25c-.469 0-.92-.199-1.253-.554A1.97 1.97 0 0 1 3.1 10V6c0-.506.188-.99.522-1.346z" fill="#fff" stroke="#DC092E" stroke-width=".2">
        </path>
    </svg>
    <svg width="20" height="15" viewBox="-2 -2 20 15" id="message" y="944">
        <path d="M14.154 0a1.838 1.838 0 0 1 1.48.742l.095.14.083.151c.12.245.188.521.188.813v7.385c0 1.02-.827 1.846-1.846 1.846H1.846A1.846 1.846 0 0 1 0 9.23V1.846C0 .826.827 0 1.846 0h12.308zm-4.32 6.237l-.622.54a1.846 1.846 0 0 1-2.424 0l-.622-.54L1.04 9.681a.923.923 0 0 0 .716.468l.09.004h12.307c.345 0 .646-.19.805-.47L9.833 6.236zm5.229-4.552l-4.509 3.924 4.523 3.041V1.846a.929.929 0 0 0-.014-.161zm-14.126 0a.924.924 0 0 0-.01.072l-.004.09v6.802l4.522-3.04zM14.154.923H1.846c-.11 0-.216.02-.315.055l5.863 5.103c.326.284.8.302 1.145.053l.067-.053L14.469.978a.918.918 0 0 0-.226-.05l-.09-.005z">
        </path>
    </svg>
    <svg width="20" height="20" viewBox="-2 -2 20 20" id="mtc" y="959">
        <title>Icons/16x16/mtc</title>
        <g transform="translate(1 1)" fill-rule="nonzero" fill="none">
            <path fill="#DC092E" d="M0 14h14V0H0z">
            </path>
            <path d="M6.984 1.435c1.985 0 4.106 3.548 4.106 6.621 0 2.414-1.419 4.473-4.106 4.473-2.69 0-4.105-2.059-4.105-4.473 0-3.073 2.12-6.621 4.105-6.621" fill="#FFF">
            </path>
        </g>
    </svg>
    <svg width="20" height="20" viewBox="-2 -2 20 20" fill="none" id="no" y="979">
        <path d="M2.343 13.657L13.657 2.343M2.343 2.343l11.314 11.314" stroke="#DC092E">
        </path>
    </svg>
    <svg width="28" height="28" viewBox="-2 -2 28 28" id="pass-hide" y="999">
        <title>Icons/30x30/no view pass</title>
        <g fill="none" fill-rule="evenodd">
            <path d="M0 0h24v24H0z">
            </path>
            <path d="M20.492 6.056a.6.6 0 0 1-.079.78l-.069.056-16 11.2a.6.6 0 0 1-.757-.927l.069-.057 16-11.2a.6.6 0 0 1 .836.148zM18.76 9.465c.286.199.566.41.838.632A17.77 17.77 0 0 1 21.6 12a17.007 17.007 0 0 1-2.002 1.908c-.721.584-1.49 1.09-2.306 1.519-.815.428-1.667.764-2.555 1.007-.887.244-1.8.366-2.737.366a10.29 10.29 0 0 1-3.06-.459l1.545-1.084.118.057c.365.159.749.252 1.152.278L12 15.6c.494 0 .96-.095 1.397-.286.437-.19.819-.448 1.144-.773.325-.325.582-.707.773-1.144.19-.438.286-.903.286-1.397 0-.106-.004-.21-.013-.313l1.09-.763a4.789 4.789 0 0 1-.097 2.515c-.147.472-.361.908-.642 1.308a11.062 11.062 0 0 0 2.128-1.186A16.228 16.228 0 0 0 19.94 12a16.228 16.228 0 0 0-1.875-1.56 11.043 11.043 0 0 0-.353-.242l1.047-.733zM12 7.2a10.29 10.29 0 0 1 3.06.459l-1.545 1.083-.118-.056a3.424 3.424 0 0 0-1.152-.278L12 8.4c-.494 0-.96.095-1.397.286-.437.19-.819.448-1.144.773a3.677 3.677 0 0 0-.773 1.144c-.19.438-.286.903-.286 1.397 0 .106.004.21.013.314l-1.09.762a4.789 4.789 0 0 1 .097-2.515c.147-.472.361-.908.643-1.308-.757.319-1.466.714-2.129 1.186-.662.472-1.287.992-1.875 1.561.588.569 1.213 1.09 1.875 1.56.117.084.234.164.353.242l-1.049.735a14.362 14.362 0 0 1-.841-.63A16.265 16.265 0 0 1 2.4 12a16.96 16.96 0 0 1 1.997-1.903 13.994 13.994 0 0 1 2.31-1.524 12.741 12.741 0 0 1 2.555-1.007A10.29 10.29 0 0 1 12 7.2z" fill="#231F20" fill-rule="nonzero">
            </path>
        </g>
    </svg>
    <svg width="28" height="28" viewBox="-2 -2 28 28" id="pass-view" y="1027">
        <title>Icons/30x30/view pass</title>
        <g fill="none" fill-rule="evenodd">
            <path d="M0 0h24v24H0z">
            </path>
            <path d="M12 16.8c.938 0 1.85-.122 2.738-.366.887-.243 1.739-.58 2.554-1.007a13.996 13.996 0 0 0 2.306-1.52c.722-.584 1.39-1.22 2.002-1.907a17.77 17.77 0 0 0-2.002-1.903 13.825 13.825 0 0 0-2.306-1.524 12.741 12.741 0 0 0-2.555-1.007A10.29 10.29 0 0 0 12 7.2c-.938 0-1.85.122-2.738.366-.887.243-1.739.58-2.554 1.007-.816.429-1.586.936-2.311 1.524A16.96 16.96 0 0 0 2.4 12a16.265 16.265 0 0 0 1.997 1.908c.725.584 1.495 1.09 2.31 1.519.816.428 1.668.764 2.555 1.007.888.244 1.8.366 2.738.366zm0-1.2c-.494 0-.96-.095-1.397-.286a3.677 3.677 0 0 1-1.144-.773 3.677 3.677 0 0 1-.773-1.144A3.459 3.459 0 0 1 8.4 12c0-.494.095-.96.286-1.397.19-.437.448-.819.773-1.144a3.677 3.677 0 0 1 1.144-.773c.438-.19.903-.286 1.397-.286s.96.095 1.397.286c.437.19.819.448 1.144.773.325.325.582.707.773 1.144.19.438.286.903.286 1.397s-.095.96-.286 1.397c-.19.437-.448.819-.773 1.144a3.677 3.677 0 0 1-1.144.773c-.438.19-.903.286-1.397.286zm-3.938-.853a11.062 11.062 0 0 1-2.128-1.186A16.228 16.228 0 0 1 4.06 12a16.228 16.228 0 0 1 1.875-1.56 11.062 11.062 0 0 1 2.128-1.187 4.816 4.816 0 0 0 0 5.494zm7.876 0a4.816 4.816 0 0 0 0-5.494c.756.319 1.465.714 2.128 1.186.662.472 1.287.992 1.875 1.561a16.228 16.228 0 0 1-1.875 1.56c-.663.473-1.372.868-2.128 1.187zM12 13.2c.169 0 .325-.031.469-.094a1.22 1.22 0 0 0 .637-.637c.063-.144.094-.3.094-.469 0-.169-.031-.325-.094-.469a1.22 1.22 0 0 0-.637-.637A1.163 1.163 0 0 0 12 10.8c-.169 0-.325.031-.469.094a1.22 1.22 0 0 0-.637.637c-.063.144-.094.3-.094.469 0 .169.031.325.094.469a1.22 1.22 0 0 0 .637.637c.144.063.3.094.469.094z" fill="#231F20" fill-rule="nonzero">
            </path>
        </g>
    </svg>
    <svg width="26" height="23" viewBox="-2 -2 26 23" fill="none" id="payment-service" y="1055">
        <path d="M18.448 1.424a2.015 2.015 0 0 1 2.013 2.015v9.168a2.018 2.018 0 0 1-2.013 2.015H3.435a2.014 2.014 0 0 1-2.013-2.015V3.439a2.018 2.018 0 0 1 2.013-2.015h15.013zm0-.424H3.435A2.436 2.436 0 0 0 1 3.439v9.168a2.44 2.44 0 0 0 2.436 2.439h15.013a2.436 2.436 0 0 0 2.437-2.44V3.44A2.44 2.44 0 0 0 18.448 1z" fill="#DC092E" stroke="#DC092E" stroke-width=".5">
        </path>
        <path d="M20.878 3.797H1.006v3.841h19.872V3.797z" fill="#DC092E">
        </path>
        <path d="M20.07 16.127c.004 1.028-2.306 1.662-5.16 1.673-2.856.01-5.175-.605-5.179-1.633a125.06 125.06 0 0 1 0-1.054c.113.992 2.393 1.626 5.178 1.616 2.772-.011 5.027-.654 5.152-1.641.005.33.009.677.01 1.04z" fill="#DC092E" stroke="#DC092E" stroke-width=".5">
        </path>
        <path d="M14.407 16.66c-2.642-.081-4.366-.87-4.463-1.559l.002-.142c.124-.761 2.13-1.578 4.944-1.589.168 0 .333.002.496.007 2.632.081 4.326.84 4.46 1.533l.003.166c-.12.762-2.124 1.58-4.946 1.591-.168 0-.333-.002-.496-.007z" fill="#fff">
        </path>
        <path d="M15.393 13.165l-.013.423c2.606.081 4.126.825 4.254 1.346l.003.125c-.122.584-1.949 1.385-4.735 1.396-.163 0-.327-.002-.489-.007-2.615-.08-4.16-.848-4.257-1.362v-.052l.002-.055c.118-.583 1.95-1.386 4.733-1.397.163 0 .327.001.489.006l.013-.423zm0 0a14.202 14.202 0 0 0-.504-.007c-2.766.01-5.02.8-5.155 1.784v.006c-.001.053 0 .11-.002.165.106.932 2.117 1.68 4.668 1.76.166.004.333.007.503.006 2.772-.01 5.033-.804 5.158-1.791l-.003-.197c-.148-.917-2.144-1.649-4.665-1.726z" fill="#DC092E" stroke="#DC092E" stroke-width=".5">
        </path>
        <path d="M18.93 12.848c-.011 1.028-2.309 1.784-5.164 1.752-2.854-.032-5.186-.841-5.174-1.869.004-.366.01-.717.016-1.053.098.993 2.373 1.712 5.158 1.743 2.772.032 5.03-.627 5.17-1.612 0 .33-.001.677-.006 1.039z" fill="#DC092E" stroke="#DC092E" stroke-width=".5">
        </path>
        <path d="M13.756 13.31c-2.844-.033-4.84-.872-4.935-1.641l.004-.143c.131-.73 1.995-1.514 4.805-1.514h.163c2.796.032 4.797.858 4.932 1.616v.165c-.126.733-1.988 1.518-4.806 1.518l-.163-.001z" fill="#fff">
        </path>
        <path d="M13.628 9.8v.424h.16c2.763.032 4.59.842 4.723 1.424v.126c-.127.561-1.903 1.325-4.594 1.325l-.16-.001c-2.809-.032-4.625-.853-4.725-1.44l.001-.053.002-.054c.12-.55 1.8-1.327 4.593-1.327V9.8zm0 0c-2.69 0-4.87.745-5.016 1.707v.005l-.005.166c.098.994 2.359 1.812 5.145 1.844h.165c2.696 0 4.882-.748 5.019-1.713 0-.067-.002-.132 0-.197-.144-.98-2.388-1.78-5.142-1.811l-.166-.001z" fill="#DC092E" stroke="#DC092E" stroke-width=".5">
        </path>
    </svg>
    <svg width="20" height="20" viewBox="-2 -2 20 20" fill="none" id="phone-call" y="1078">
        <path fill-rule="evenodd" clip-rule="evenodd" d="M2.342 2.344a8 8 0 1 1 11.316 11.312A8 8 0 0 1 2.342 2.344zm9.773 8.801v-.001a.339.339 0 0 0 0-.479l-1.502-1.504V9.16a.339.339 0 0 0-.48.001l-.85.864a.723.723 0 0 1-.923.08A10.23 10.23 0 0 1 6.973 8.94 10.291 10.291 0 0 1 5.92 7.71a.717.717 0 0 1 .075-.933l.88-.88v-.001a.339.339 0 0 0 0-.479L5.376 3.918h-.001a.339.339 0 0 0-.479 0l-.475.475a2.133 2.133 0 0 0-.533 2.179c.217.654.524 1.275.912 1.845.354.53.76 1.023 1.213 1.472a9.51 9.51 0 0 0 1.624 1.31 7.088 7.088 0 0 0 2.059.922 2.134 2.134 0 0 0 2.013-.576l.406-.403v.003z" fill="#DC092E">
        </path>
    </svg>
    <svg width="28" height="28" viewBox="-2 -2 28 28" fill="none" id="pick-up" y="1098">
        <path fill-rule="evenodd" clip-rule="evenodd" d="M7.484 8V5.2h3.927V8l-.004.132a2.012 2.012 0 0 1-.379 1.055l-.01.013a1.95 1.95 0 0 1-1.57.8l-.13-.004C8.294 9.928 7.484 9.06 7.484 8zm-2.735 3.173a3.131 3.131 0 0 0 2.146-1.307A3.12 3.12 0 0 0 9.447 11.2 3.12 3.12 0 0 0 12 9.866a3.12 3.12 0 0 0 2.553 1.334 3.12 3.12 0 0 0 2.552-1.334 3.131 3.131 0 0 0 2.146 1.307V18.4l-.007.072a.395.395 0 0 1-.386.328h-2.356v-4.4c0-.884-.704-1.6-1.571-1.6H9.069c-.868 0-1.57.716-1.57 1.6v4.4H5.141l-.07-.006a.398.398 0 0 1-.323-.394v-7.227zm-1.178-.07C2.208 10.753 1.2 9.496 1.2 8V4.8c0-.442.352-.8.785-.8h20.03c.433 0 .785.358.785.8V8c0 1.496-1.009 2.753-2.37 3.103V18.4c0 .884-.704 1.6-1.572 1.6H5.142c-.868 0-1.571-.716-1.571-1.6v-7.297zm.82-1.104A1.95 1.95 0 0 0 5.912 9.2l.01-.013c.216-.3.353-.662.378-1.055L6.305 8V5.2H2.378V8c0 .826.492 1.535 1.193 1.84.199.087.415.14.642.156l.129.004h.048zm14.86-.042c.09.02.183.032.278.039l-.278-.04zm.278.039l.13.004a1.927 1.927 0 0 0 .77-.16 2 2 0 0 0 1.189-1.708L21.622 8V5.2h-3.927V8c0 .962.667 1.766 1.556 1.957M16.516 8l-.004.132a2.012 2.012 0 0 1-.378 1.054l-.01.014c-.358.486-.929.8-1.571.8l-.13-.004C13.4 9.928 12.59 9.06 12.59 8V5.2h3.927V8zm-1.192 6.4v4.4H8.676v-4.4c0-.196.14-.36.322-.394L9.07 14h5.862c.193 0 .353.142.386.328l.007.072z" fill="#231F20">
        </path>
    </svg>
    <svg width="44" height="50" viewBox="-2 -2 44 50" fill="none" id="pin-map" y="1126">
        <path d="M20 2.333c8.087 0 14.667 6.233 14.667 13.894 0 4.514-2.331 9.786-6.929 15.67l-.56.707-.279.343-.553.666-.544.638-.532.608-.516.577-.74.801-.463.49-.845.869-1.01.995-.786.734a1.36 1.36 0 0 1-.91.342c-.281 0-.562-.084-.796-.25l-.154-.129-.631-.613-.95-.962-.813-.855-.684-.742-.487-.54-.766-.873-.53-.621-.544-.651-.551-.678-.558-.705a65.27 65.27 0 0 1-.28-.361c-4.594-5.973-6.923-11.175-6.923-15.46 0-7.661 6.58-13.894 14.667-13.894z" fill="#DC092E" filter="url(#a)">
        </path>
        <path fill-rule="evenodd" clip-rule="evenodd" d="M20 9.666A7.34 7.34 0 0 0 12.667 17 7.34 7.34 0 0 0 20 24.333 7.34 7.34 0 0 0 27.333 17 7.34 7.34 0 0 0 20 9.666z" fill="#fff">
        </path>
        <defs>
            <filter id="a" x="1.333" y=".333" width="37.333" height="45.333" filterUnits="userSpaceOnUse" color-interpolation-filters="sRGB">
                <feFlood flood-opacity="0" result="BackgroundImageFix">
                </feFlood>
                <feColorMatrix in="SourceAlpha" values="0 0 0 0 0 0 0 0 0 0 0 0 0 0 0 0 0 0 127 0">
                </feColorMatrix>
                <feOffset dy="2">
                </feOffset>
                <feGaussianBlur stdDeviation="2">
                </feGaussianBlur>
                <feColorMatrix values="0 0 0 0 0.137255 0 0 0 0 0.121569 0 0 0 0 0.12549 0 0 0 0.300317 0">
                </feColorMatrix>
                <feBlend in2="BackgroundImageFix" result="effect1_dropShadow">
                </feBlend>
                <feBlend in="SourceGraphic" in2="effect1_dropShadow" result="shape">
                </feBlend>
            </filter>
        </defs>
    </svg>
    <svg width="60" height="60" viewBox="-2 -2 60 60" fill="none" id="service-delivery" y="1176">
        <path opacity=".01" fill="#D8D8D8" d="M0 0h56v56H0z">
        </path>
        <path d="M27.3 10.063H3.488c-.562 0-1.024.427-1.08.974l-.005.111v23.323h25.982l.001-23.323c0-.562-.427-1.024-.974-1.08l-.11-.005z" fill="#DC092E">
        </path>
        <path fill-rule="evenodd" clip-rule="evenodd" d="M14.542 28.875c-3.536 0-6.107-2.914-5.76-6.563.37-3.648 3.485-6.562 7.045-6.562h6.923l-1.137 6.563c-.643 3.598-3.536 6.562-7.071 6.562zm1.557-9.096l-.197.76c.519 0 1.112.279 1.458.608.42.481.544 1.14.42 1.951-.346 2.052-1.977 2.99-3.807 2.94h-1.409l.321-1.8H14.418c.643 0 1.063-.355 1.162-.963.149-1.038-.816-1.165-1.557-1.064-.05 0-.1 0-.124-.05-.025-.026-.05-.077-.025-.127l.742-4.08c.025-.076.124-.152.198-.152h4.129l-.347 1.977H16.1zM34.456 14.367H42l.238.005a5.736 5.736 0 0 1 4.516 2.523l4.864 7.206.142.222c.548.899.84 1.933.84 2.99v11.52h2.6l.046.007a.143.143 0 0 1 .098.136V41.4l-.008.045-.02.04a.143.143 0 0 1-.115.059h-5.926l-.023-.104-.056-.216c-.85-3.081-3.67-5.304-6.958-5.304l-.229.004-.232.01a7.235 7.235 0 0 0-6.553 5.506l-.024.103H23.26l-.08-.319a7.207 7.207 0 0 0-1.089-2.28l-.084-.112h11.507V15.31l.006-.103a.942.942 0 0 1 .936-.84zM2.394 38.834l.055-.003 7.99.002-.079.105-.178.26a7.201 7.201 0 0 0-.99 2.317l-.007.03H2.412l-.042-.007a.143.143 0 0 1-.1-.12l-.002-.054v-2.388l.007-.042a.143.143 0 0 1 .12-.1zm10.17 4.317a3.66 3.66 0 1 1 3.66 3.661 3.66 3.66 0 0 1-3.66-3.661zm29.674-3.662a3.66 3.66 0 0 0-3.66 3.662 3.66 3.66 0 1 0 3.66-3.662z" fill="#fff">
        </path>
        <path fill-rule="evenodd" clip-rule="evenodd" d="M27.3 8.75a2.398 2.398 0 0 1 2.398 2.398v23.837a.8.8 0 0 1-.8.8H1.889a.8.8 0 0 1-.798-.8V11.148A2.398 2.398 0 0 1 3.487 8.75h23.814zm0 1.313H3.488c-.562 0-1.024.427-1.08.974l-.005.111v23.323h25.983V11.148c0-.562-.427-1.024-.973-1.08l-.111-.005zm19.523 5.892a7.048 7.048 0 0 0-5.698-2.9h-7.544l-.143.004-.146.014a2.255 2.255 0 0 0-1.965 2.237v22.21H17.864l1.337 1.153.197.178c.963.91 1.6 2.117 1.793 3.444l.082.562h14.163l.081-.562.034-.205a5.92 5.92 0 0 1 5.81-4.856 5.919 5.919 0 0 1 5.845 5.061l.081.562h7.038l.125-.005a1.456 1.456 0 0 0 1.33-1.45v-2.426l-.005-.126-.017-.13a1.456 1.456 0 0 0-1.433-1.2h-1.29l.001-10.207-.005-.281a7.054 7.054 0 0 0-1.202-3.665l-4.863-7.207-.144-.205zM11.494 38.673l1.337-1.153H1.536l-.13.006-.134.021a1.458 1.458 0 0 0-1.19 1.429V41.4l.006.131.02.134c.141.698.731 1.19 1.428 1.19H9.41l.139-.827.055-.259c.286-1.2.95-2.285 1.89-3.097zm-9.92.158l-.055.003a.143.143 0 0 0-.12.1l-.005.042-.002 2.387.003.056a.143.143 0 0 0 .1.12l.041.005H8.31l.006-.029c.193-.83.53-1.614.99-2.317l.179-.26.078-.105-7.989-.002zm32.007-24.464h7.544l.238.005a5.736 5.736 0 0 1 4.516 2.523l4.864 7.206.142.222c.548.899.84 1.933.84 2.99v11.52h2.6l.046.007a.143.143 0 0 1 .098.136V41.4l-.008.045-.02.04a.142.142 0 0 1-.115.058h-5.927l-.022-.103-.056-.216c-.85-3.081-3.67-5.304-6.958-5.304l-.229.004-.232.01a7.235 7.235 0 0 0-6.554 5.506l-.023.103h-11.94l-.08-.319a7.207 7.207 0 0 0-1.089-2.28l-.084-.112h11.507V15.31l.006-.103a.942.942 0 0 1 .936-.84zm9.488 3.947a.799.799 0 0 0-.593-.264H36.41l-.093.006a.8.8 0 0 0-.706.794v5.528l.005.094a.8.8 0 0 0 .794.706h9.955l.095-.005a.8.8 0 0 0 .558-1.255L43.13 18.39l-.06-.076zm-6.146 1.049h5.286l3.166 4.502h-8.452v-4.502z" fill="#231F20">
        </path>
        <path fill-rule="evenodd" clip-rule="evenodd" d="M15.348 38.176a4.973 4.973 0 0 1 4.972 4.975 4.973 4.973 0 1 1-4.972-4.975zm0 1.313a3.66 3.66 0 0 0-3.66 3.662 3.66 3.66 0 1 0 3.66-3.662zm26.015-1.313a4.973 4.973 0 0 1 4.972 4.975 4.973 4.973 0 1 1-9.944 0 4.973 4.973 0 0 1 4.972-4.975zm0 1.313a3.66 3.66 0 0 0-3.66 3.662 3.66 3.66 0 1 0 3.66-3.662z" fill="#231F20">
        </path>
        <path fill-rule="evenodd" clip-rule="evenodd" d="M14.174 43.15a1.174 1.174 0 1 1 2.348 0 1.174 1.174 0 0 1-2.348 0zm26.015 0a1.174 1.174 0 1 1 2.348 0 1.174 1.174 0 0 1-2.348 0z" fill="#231F20">
        </path>
    </svg>
    <svg width="60" height="60" viewBox="-2 -2 60 60" fill="none" id="service-equipment" y="1236">
        <path opacity=".01" fill="#D8D8D8" d="M0 0h56v56H0z">
        </path>
        <path fill-rule="evenodd" clip-rule="evenodd" d="M46.913 8.323H27.039a.727.727 0 0 0-.72.632l-.006.09v14.097c0 .365.277.67.635.716l.091.005h9.923c.703 0 1.341.4 1.654 1.023l.062.137 5.554 13.719a1.866 1.866 0 0 1-.18 1.74c-.317.47-.827.766-1.383.812l-.153.006h-2.577a1.79 1.79 0 0 0-1.784 1.652l-.005.133v3.664c0 .937.731 1.71 1.656 1.78l.133.004h12.446c.67 0 1.223-.514 1.286-1.164l.006-.124v-4.657c0-.666-.514-1.22-1.168-1.282l-.124-.006h-.422a1.852 1.852 0 0 1-1.654-1.022l-.062-.137-5.554-13.72a1.862 1.862 0 0 1 .181-1.739 1.85 1.85 0 0 1 1.382-.812l.153-.007h.504c4.284 0 7.77-3.488 7.77-7.77 0-4.205-3.362-7.645-7.541-7.766l-.229-.004zM25.928 29.752l.11.005c.537.055.958.51.958 1.06v1.547h-1.934v13.603l-1.48 2.469-1.48-2.467V32.364h-1.934v-1.546c0-.587.48-1.066 1.068-1.066h4.692zM3.78 17.036h6.016V15.15H3.78l-2.259.943 2.26.943z" fill="#fff">
        </path>
        <path fill-rule="evenodd" clip-rule="evenodd" d="M20.544 9.024a1.145 1.145 0 0 1 1.385 1.116v11.907l-.007.132a1.11 1.11 0 0 1-.333.68c-.22.215-.502.33-.802.33l-.143-.007-.09-.016a1.456 1.456 0 0 1-.13-.036l-6.082-2.008-.105-.041a1.135 1.135 0 0 1-.68-1.042v-7.891l.006-.113c.044-.446.344-.826.78-.97l6.08-2.008.121-.033zm.691 20.728h4.693l.109.005.106.016c.486.1.852.531.852 1.044v1.547h-1.2v-.003h-5.097v.002h-.53v-1.546l.005-.108a1.07 1.07 0 0 1 1.062-.957z" fill="#DC092E">
        </path>
        <path fill-rule="evenodd" clip-rule="evenodd" d="M56 16.093C56 11.08 51.923 7 46.913 7H27.039a2.047 2.047 0 0 0-2.044 2.045v14.097c0 1.127.917 2.045 2.044 2.045h9.923c.218 0 .413.132.495.334l5.554 13.72a.537.537 0 0 1-.496.736h-2.577a3.11 3.11 0 0 0-3.105 3.108v3.663a3.11 3.11 0 0 0 3.105 3.108h12.446a2.614 2.614 0 0 0 2.61-2.61v-4.658c0-1.44-1.17-2.611-2.61-2.611h-.421a.535.535 0 0 1-.496-.334l-5.554-13.72a.535.535 0 0 1 .496-.736h.504c5.01 0 9.087-4.08 9.087-9.094zm-28.961-7.77h19.874l.228.004c4.18.121 7.542 3.56 7.542 7.766 0 4.282-3.486 7.77-7.77 7.77h-.504l-.153.007a1.85 1.85 0 0 0-1.382.812 1.862 1.862 0 0 0-.181 1.74l5.553 13.72.063.136a1.852 1.852 0 0 0 1.654 1.022h.421l.124.006a1.293 1.293 0 0 1 1.169 1.282v4.657l-.006.124a1.294 1.294 0 0 1-1.287 1.164H39.938l-.133-.005a1.79 1.79 0 0 1-1.655-1.78v-3.663l.005-.133a1.79 1.79 0 0 1 1.783-1.652h2.577l.153-.006a1.85 1.85 0 0 0 1.383-.813 1.866 1.866 0 0 0 .18-1.74l-5.553-13.718-.062-.137a1.851 1.851 0 0 0-1.654-1.023h-9.923l-.091-.005a.726.726 0 0 1-.636-.716V9.045l.006-.09a.727.727 0 0 1 .72-.632zm1.16 2.861v9.157c0 .296.296.536.66.536.363 0 .658-.24.658-.536v-9.157c0-.295-.295-.534-.658-.534-.364 0-.66.239-.66.534zm2.635 9.157v-9.157c0-.295.296-.534.66-.534.363 0 .658.239.658.534v9.157c0 .296-.295.536-.659.536-.363 0-.659-.24-.659-.536zm-.267 6.309a.657.657 0 0 1 .828.256l.041.08 1.476 3.33 4.418.001a.66.66 0 0 1 .653.572l.006.09a.66.66 0 0 1-.57.656l-.09.006h-5.273l-1.823-4.118a.663.663 0 0 1 .334-.873zm-4.639 1.778c1.267 0 2.305.993 2.38 2.244l.005.145v1.674c0 .622-.474 1.133-1.078 1.191l-.115.006h-.74v12.316c0 .13-.022.26-.063.382l-.048.12-.06.115-1.604 2.674a1.193 1.193 0 0 1-1.976.104l-.07-.104-1.604-2.674a1.2 1.2 0 0 1-.163-.487l-.008-.13V33.688h-.74a1.195 1.195 0 0 1-1.172-.969l-.016-.112-.005-.115v-1.674c0-1.27.992-2.31 2.24-2.384l.145-.005h4.692zm-.867 15.844h-2.96v1.697l1.48 2.467 1.48-2.469v-1.695zm-2.96-3.53h2.96v2.206h-2.96v-2.206zm2.96-3.529h-2.96v2.206h2.96v-2.206zm-2.96-3.529h2.96v2.205h-2.96v-2.205zm3.827-3.932h-4.692a1.07 1.07 0 0 0-1.063.957l-.005.108v1.547h.53v-.003h5.098v.003h1.2v-1.546c0-.514-.367-.945-.853-1.045l-.106-.016-.109-.005zM23.243 9.99a2.465 2.465 0 0 0-2.456-2.316c-.261 0-.522.042-.775.126l-6.08 2.008-.158.058a2.458 2.458 0 0 0-1.533 2.282v7.89l.005.168a2.46 2.46 0 0 0 1.685 2.173l6.081 2.008.191.055c.128.031.258.052.388.063l.196.008.175-.007a2.452 2.452 0 0 0 1.546-.698c.476-.466.74-1.091.74-1.76V10.14l-.005-.15zm-2.698-.966a1.145 1.145 0 0 1 1.385 1.116v11.907l-.008.132a1.11 1.11 0 0 1-.333.68c-.22.215-.501.33-.802.33l-.143-.007-.09-.016a1.465 1.465 0 0 1-.13-.036l-6.081-2.008-.106-.041a1.135 1.135 0 0 1-.679-1.042v-7.891l.005-.113c.044-.446.344-.826.78-.97l6.08-2.008.122-.033zM9.92 13.826H3.757c-.158 0-.313.031-.459.092l-2.563 1.07a1.197 1.197 0 0 0 0 2.21l2.563 1.07c.146.061.301.092.459.092H9.92c.658 0 1.193-.535 1.193-1.197v-2.14c0-.661-.534-1.197-1.193-1.197zm-.125 3.21H3.78l-2.259-.943 2.26-.943h6.014v1.886z" fill="#231F20">
        </path>
    </svg>
    <svg width="60" height="60" viewBox="-2 -2 60 60" fill="none" id="service-giftcard" y="1296">
        <path opacity=".01" fill="#D8D8D8" d="M0 0h56v56H0z">
        </path>
        <path d="M14.502 24.511l-4.48 11.18M14.957 24.342c-1.822 3.47-1.143 8.57-4.09 10.58" stroke="#979797">
        </path>
        <path d="M51.625 9.188H4.375a3.063 3.063 0 0 0-3.058 2.894l-.004.168v28a3.063 3.063 0 0 0 2.894 3.058l.168.005h47.25a3.063 3.063 0 0 0 3.058-2.895l.005-.168v-28a3.063 3.063 0 0 0-2.895-3.058l-.168-.005z" fill="#fff">
        </path>
        <path fill-rule="evenodd" clip-rule="evenodd" d="M51.625 7.875A4.375 4.375 0 0 1 56 12.25v28a4.375 4.375 0 0 1-4.375 4.375H4.375A4.375 4.375 0 0 1 0 40.25v-28a4.375 4.375 0 0 1 4.375-4.375h47.25zm0 1.313H4.375a3.063 3.063 0 0 0-3.058 2.894l-.004.168v28a3.063 3.063 0 0 0 2.894 3.058l.168.005h47.25a3.063 3.063 0 0 0 3.058-2.895l.005-.168v-28a3.063 3.063 0 0 0-2.895-3.058l-.168-.005zm-.51 23.406a.656.656 0 0 0-.656-.657h-13.09l-.089.006a.656.656 0 0 0 .09 1.307h13.089l.089-.006a.656.656 0 0 0 .567-.65zm-.656 2.843a.656.656 0 0 1 .089 1.307l-.09.006H37.37a.656.656 0 0 1-.089-1.306l.09-.007h13.089zm.656 4.157a.656.656 0 0 0-.656-.657h-13.09l-.089.007a.656.656 0 0 0 .09 1.306h13.089l.089-.006a.656.656 0 0 0 .567-.65z" fill="#231F20">
        </path>
        <path d="M54.688 24.938H1.312v2.625h53.376v-2.625z" fill="#fff">
        </path>
        <path fill-rule="evenodd" clip-rule="evenodd" d="M56 28.875v-5.25H0v5.25h56zM1.312 24.937h53.376v2.625H1.312v-2.625z" fill="#231F20">
        </path>
        <path fill-rule="evenodd" clip-rule="evenodd" d="M6.132 15.615c-.655.335-1.042 1-1.177 2.061-.269 2.1-.2 4.127.432 5.568l.058.123.016-.053a3.18 3.18 0 0 1 .735-1.207l.148-.143c1.49-1.358 4.081-1.375 6.95-.679l.217.055.129-.049a7.01 7.01 0 0 1 .198-.07l.202-.065.136-.039v-.801l-.281-.1c-.701-.249-1.365-.465-1.984-.646l-.365-.104a.778.778 0 0 1-.537-.952.765.765 0 0 1 .942-.546c.68.19 1.415.42 2.193.69l.272.097.071-.15c.117-.227.265-.434.438-.615l.034-.035-.05-.027c-4.578-2.462-7.376-3.027-8.777-2.313zm10.515 3.172h1.706c.51 0 .94.493.94 1.112v2.623l-.005.12-.015.11c-.088.506-.475.882-.92.882h-1.706l-.1-.006-.09-.016c-.42-.099-.75-.549-.75-1.09V19.9l.005-.12.014-.11c.088-.506.476-.882.92-.882zm-9.854 6.01c-.034-.752.157-1.297.574-1.677.721-.657 2.196-.878 4.11-.607l.04.005-.069.057a7.491 7.491 0 0 0-1.84 2.346l-.081.169-.135.027c-1.027.186-1.877.111-2.544-.217l-.05-.026-.005-.077zm7.39-2.052l-.145.055c-2.067.82-3.514 2.79-3.684 5.06l-.013.228-.004.228v5.524l2.007-1.808a.757.757 0 0 1 .838-.118l.092.05.086.068 2.007 1.807v-9.04l-.039-.024a2.515 2.515 0 0 1-.274-.217l-.08-.077-.085.1c-.303.375-.544.866-.691 1.42l-.05.21a.768.768 0 0 1-.914.592.777.777 0 0 1-.582-.924c.247-1.146.785-2.127 1.52-2.776l.054-.047-.002-.01a2.801 2.801 0 0 1-.024-.149l-.016-.152zm6.63 0l-.017.174-.01.058.047.038c1.227 1.012 2.015 2.929 2.076 5.037l.004.264a.771.771 0 0 1-.766.777.771.771 0 0 1-.765-.777c0-1.537-.476-2.982-1.214-3.809l-.084-.088-.103.105a2.553 2.553 0 0 1-.146.129l-.157.117-.046.028v4.478l-.002.011-.002 4.91.004.064v3.117l2.007-1.807a.756.756 0 0 1 .838-.118l.093.051.086.067 2.007 1.808v-9.063c0-2.454-1.495-4.64-3.7-5.516l-.15-.055zm2.98-.267l-.313.041.07.057a7.501 7.501 0 0 1 1.84 2.345l.081.17.136.026c1.027.186 1.877.111 2.544-.217l.05-.027.005-.076c.032-.69-.126-1.205-.474-1.579l-.1-.098c-.686-.626-2.057-.856-3.84-.642zm-1.89-5.472l.56-.26c3.198-1.446 5.264-1.712 6.404-1.13.656.334 1.042.998 1.178 2.06l.037.315c.223 1.986.13 3.884-.47 5.253l-.058.123-.016-.053a3.184 3.184 0 0 0-.883-1.35l-.152-.132c-1.51-1.226-4.025-1.22-6.798-.547l-.22.055-.224-.084a7.02 7.02 0 0 0-.299-.099l-.139-.04v-.806l.652-.229c.39-.133.768-.256 1.13-.367a.779.779 0 0 0 .51-.966.764.764 0 0 0-.955-.52l-.426.134-.291.094-.598.202-.264.092-.07-.149a2.663 2.663 0 0 0-.437-.613l-.034-.034.678-.358c.205-.107.406-.209.604-.307l.582-.284z" fill="#fff">
        </path>
        <path fill-rule="evenodd" clip-rule="evenodd" d="M6.132 15.615c-.655.335-1.042 1-1.177 2.061-.269 2.1-.2 4.127.432 5.568l.058.123.016-.053a3.18 3.18 0 0 1 .735-1.207l.148-.143c1.49-1.358 4.081-1.375 6.95-.679l.217.055.129-.049a7.01 7.01 0 0 1 .198-.07l.202-.065.136-.039v-.801l-.281-.1c-.701-.249-1.365-.465-1.984-.646l-.365-.104a.778.778 0 0 1-.537-.952.765.765 0 0 1 .942-.546c.68.19 1.415.42 2.193.69l.272.097.071-.15c.117-.227.265-.434.438-.615l.034-.035-.05-.027c-4.578-2.462-7.376-3.027-8.777-2.313zm10.515 3.172h1.706c.51 0 .94.493.94 1.112v2.623l-.005.12-.015.11c-.088.506-.475.882-.92.882h-1.706l-.1-.006-.09-.016c-.42-.099-.75-.549-.75-1.09V19.9l.005-.12.014-.11c.088-.506.476-.882.92-.882zm-2.463 3.958l-.146.055c-2.067.82-3.514 2.79-3.684 5.06l-.013.228-.004.228v5.524l2.007-1.808a.757.757 0 0 1 .838-.118l.092.05.086.068 2.007 1.807v-9.04l-.039-.024a2.515 2.515 0 0 1-.274-.217l-.08-.077-.085.1c-.303.375-.544.866-.691 1.42l-.05.21a.768.768 0 0 1-.914.592.777.777 0 0 1-.582-.924c.247-1.146.785-2.127 1.52-2.776l.054-.047-.002-.01a2.801 2.801 0 0 1-.024-.149l-.016-.152zm6.63 0l-.018.174-.01.058.047.038c1.227 1.012 2.015 2.929 2.076 5.037l.004.264a.771.771 0 0 1-.766.777.771.771 0 0 1-.765-.777c0-1.537-.476-2.982-1.214-3.809l-.084-.088-.103.105a2.553 2.553 0 0 1-.146.129l-.157.117-.046.028v4.478l-.002.011-.002 4.91.004.064v3.117l2.007-1.807a.756.756 0 0 1 .838-.118l.093.051.086.067 2.007 1.808v-9.063c0-2.454-1.495-4.64-3.7-5.516l-.15-.055zm1.09-5.739l.56-.26c3.197-1.446 5.263-1.712 6.403-1.13.656.334 1.042.998 1.178 2.06l.037.315c.223 1.986.13 3.884-.47 5.253l-.058.123-.016-.053a3.184 3.184 0 0 0-.883-1.35l-.152-.132c-1.51-1.226-4.025-1.22-6.798-.547l-.22.055-.224-.084a7.02 7.02 0 0 0-.299-.099l-.139-.04v-.806l.652-.229c.39-.133.768-.256 1.13-.367a.779.779 0 0 0 .51-.966.764.764 0 0 0-.955-.52l-.426.134-.291.094-.598.202-.264.092-.07-.149a2.663 2.663 0 0 0-.437-.613l-.034-.034.678-.358c.205-.107.406-.209.604-.307l.582-.284z" fill="#DC092E">
        </path>
        <path fill-rule="evenodd" clip-rule="evenodd" d="M29.412 14.158l-.15-.064c-2.09-.842-5.403.016-10.113 2.583l-.997.556h-1.305l-.653-.368c-.233-.129-.463-.254-.689-.375l-.668-.35-.65-.327c-4.047-1.99-6.916-2.517-8.742-1.586-1.132.578-1.808 1.68-2.009 3.25-.443 3.465-.046 6.487 1.767 8.152.826.759 1.933 1.143 3.144 1.143l.303-.007.32-.022a7.585 7.585 0 0 0-.164 1.573v7.253l.006.097.02.101c.062.23.215.414.423.51l.094.035.095.023a.758.758 0 0 0 .636-.185l2.772-2.5 2.772 2.5.077.06.084.05a.748.748 0 0 0 .664.017l.088-.048.08-.057a.781.781 0 0 0 .281-.603V25.187H18.1l-.002 3.262.002 10.66.007.096.02.102c.061.229.214.413.423.51l.093.035.096.023a.758.758 0 0 0 .635-.186l2.772-2.499 2.773 2.5.076.06.084.05a.75.75 0 0 0 .664.016.777.777 0 0 0 .45-.707V28.316l-.007-.317-.02-.319a7.627 7.627 0 0 0-.08-.628l-.058-.31.32.023.304.007c1.21 0 2.316-.383 3.141-1.14 1.815-1.666 2.212-4.688 1.77-8.156-.201-1.57-.877-2.671-2.009-3.249l-.143-.069zm-8.616 8.76l.018-.173.148.055c2.206.876 3.7 3.062 3.7 5.516v9.063l-2.006-1.808-.086-.067-.093-.051a.757.757 0 0 0-.838.118l-2.007 1.807v-3.117l-.004-.064.002-4.91.002-.011v-4.478l.046-.028.157-.117c.05-.041.1-.084.146-.128l.103-.106.084.088c.738.827 1.214 2.272 1.214 3.809 0 .428.342.777.765.777a.771.771 0 0 0 .766-.777l-.004-.264c-.06-2.108-.85-4.025-2.076-5.037l-.047-.038.01-.058zm-6.612-.173l-.146.055c-2.067.82-3.514 2.79-3.684 5.06l-.013.228-.004.228v5.524l2.007-1.808a.757.757 0 0 1 .838-.118l.092.05.087.068 2.006 1.807v-9.04l-.039-.024a2.503 2.503 0 0 1-.274-.217l-.08-.077-.085.1c-.303.375-.544.866-.69 1.42l-.051.21a.768.768 0 0 1-.914.592.777.777 0 0 1-.582-.924c.247-1.146.785-2.127 1.52-2.776l.054-.047-.002-.01a2.801 2.801 0 0 1-.024-.149l-.016-.152zm-7.39 2.052c-.035-.752.156-1.297.573-1.677.721-.658 2.196-.878 4.11-.607l.04.005-.069.057a7.492 7.492 0 0 0-1.84 2.346l-.081.169-.135.027c-1.027.186-1.877.111-2.543-.217l-.05-.026-.005-.077zm16.998-2.32l-.312.042.07.057a7.5 7.5 0 0 1 1.84 2.345l.081.17.136.026c1.027.186 1.877.11 2.544-.217l.05-.027.005-.076c.032-.69-.126-1.205-.474-1.579l-.1-.098c-.686-.626-2.057-.856-3.84-.642zm-7.145-3.69h1.706c.51 0 .94.493.94 1.112v2.623l-.005.12-.015.11c-.087.506-.475.882-.92.882h-1.706l-.1-.006-.09-.016c-.42-.099-.75-.549-.75-1.09V19.9l.005-.12.014-.11c.088-.506.476-.882.92-.882zM6.132 15.615c-.655.335-1.042 1-1.177 2.061-.269 2.1-.2 4.127.433 5.568l.057.123.016-.053a3.18 3.18 0 0 1 .735-1.207l.148-.143c1.49-1.358 4.081-1.375 6.95-.679l.218.055.128-.049a7.01 7.01 0 0 1 .198-.07l.202-.065.136-.039v-.801l-.281-.1c-.7-.249-1.365-.465-1.984-.646l-.365-.104a.778.778 0 0 1-.537-.953.765.765 0 0 1 .942-.545c.68.19 1.416.42 2.193.69l.272.097.072-.15c.117-.227.264-.434.437-.615l.034-.035-.05-.027c-4.578-2.462-7.376-3.027-8.777-2.313zm15.772 1.391l.56-.26c3.197-1.446 5.264-1.712 6.403-1.13.656.334 1.042.998 1.178 2.06l.038.315c.222 1.986.13 3.884-.47 5.253l-.06.123-.015-.053a3.184 3.184 0 0 0-.882-1.35l-.153-.132c-1.51-1.226-4.025-1.22-6.798-.547l-.22.055-.224-.084a7.165 7.165 0 0 0-.298-.099l-.14-.04v-.806l.653-.229c.39-.133.767-.256 1.129-.367a.779.779 0 0 0 .51-.966.764.764 0 0 0-.955-.52l-.426.134-.291.094-.598.202-.264.092-.07-.149a2.663 2.663 0 0 0-.437-.613l-.034-.034.678-.358c.205-.107.407-.209.604-.307l.582-.284z" fill="#231F20">
        </path>
    </svg>
    <svg width="28" height="28" viewBox="-2 -2 28 28" fill="none" id="showcase" y="1356">
        <g clip-path="url(#a)">
            <path d="M13.648 1.872c.2-.252.542-.34.839-.217l8.271 3.448a.718.718 0 0 1 .287 1.109L21.24 8.486l1.804 2.275a.718.718 0 0 1-.287 1.108l-1.604.668v5.815c0 .272-.153.52-.396.642l-8.257 4.13a.714.714 0 0 1-.5.053.719.719 0 0 1-.403-.013l-.099-.04-8.257-4.13a.718.718 0 0 1-.39-.541l-.007-.1v-5.816l-1.603-.668a.722.722 0 0 1-.089-.044l-.081-.056a.718.718 0 0 1-.117-1.008l1.803-2.275L.955 6.212a.718.718 0 0 1 .287-1.11l8.271-3.447a.718.718 0 0 1 .84.217L12 3.95l1.648-2.078zM3.922 12.986v5.144l7.54 3.77-.001-8.199-1.109 1.4a.718.718 0 0 1-.738.25l-.1-.034-5.592-2.331zm16.155 0l-5.59 2.33a.718.718 0 0 1-.84-.216L12 13.022h-.001l.54.68V21.9l7.539-3.77-.001-5.145zm.37-3.768l-7.582 3.161 1.458 1.84 7.583-3.161-1.46-1.84zm-16.894 0l-1.459 1.84 7.583 3.16 1.459-1.839-7.583-3.16zM12 5.4L4.785 8.407 12 11.415l7.214-3.008L12 5.4zm2.323-2.646l-1.459 1.84 7.583 3.16 1.459-1.84-7.583-3.16zm-4.646 0l-7.583 3.16 1.46 1.84 7.582-3.16-1.459-1.84z" fill="#231F20">
            </path>
        </g>
        <defs>
            <clipPath id="a">
                <path fill="#fff" transform="translate(0 .5)" d="M0 0h24v23H0z">
                </path>
            </clipPath>
        </defs>
    </svg>
    <svg width="28" height="28" viewBox="-2 -2 28 28" fill="none" id="specification" y="1384">
        <path fill-rule="evenodd" clip-rule="evenodd" d="M20.943 6.769v7.685H19.76V7.625h-3.724a1 1 0 0 1-1-1v-3.82H5.98v16.87h8.662v1.206H5.8a1 1 0 0 1-1-1V2.6a1 1 0 0 1 1-1h10.077l5.066 5.169zm-2.021-.349h-2.704V3.662l2.704 2.758zm-1.523 4.218c0 .333-.27.602-.602.602H8.946a.603.603 0 0 1 0-1.205h7.85c.333 0 .603.27.603.603zm-.602 3.012a.603.603 0 0 0 0-1.205H8.946a.602.602 0 1 0 0 1.205h7.85zm-1.76 1.808c0 .333-.27.603-.603.603H8.946a.602.602 0 1 1 0-1.206h5.488c.333 0 .603.27.603.603zM20.992 24l1.098-.461-.48-1.168c.314-.22.578-.49.794-.81l1.144.49.452-1.12-1.144-.48a2.98 2.98 0 0 0 0-1.149l1.144-.48-.452-1.12-1.144.49a3.09 3.09 0 0 0-.794-.81l.48-1.168-1.098-.461-.47 1.167a2.806 2.806 0 0 0-1.127 0l-.47-1.167-1.098.461.48 1.168c-.314.22-.579.49-.794.81l-1.144-.49-.453 1.12 1.145.48a2.979 2.979 0 0 0 0 1.149l-1.145.48.453 1.12 1.144-.49c.215.32.48.59.793.81l-.48 1.168 1.099.461.47-1.167a2.805 2.805 0 0 0 1.126 0l.47 1.167zm-1.034-2.316c-.246 0-.476-.047-.692-.141a1.776 1.776 0 0 1-.941-.96 1.806 1.806 0 0 1-.139-.706 1.806 1.806 0 0 1 1.08-1.667 1.71 1.71 0 0 1 .692-.141c.246 0 .477.047.692.141a1.778 1.778 0 0 1 .942.96c.092.22.138.455.138.706a1.804 1.804 0 0 1-1.08 1.667 1.708 1.708 0 0 1-.692.141z" fill="#231F20">
        </path>
    </svg>
    <svg width="24" height="24" viewBox="-2 -2 24 24" fill="none" id="upload" y="1412">
        <path d="M10.354 3.646a.5.5 0 0 0-.708 0L6.464 6.828a.5.5 0 1 0 .708.708L10 4.707l2.828 2.829a.5.5 0 1 0 .708-.708l-3.182-3.182zM10.5 12V4h-1v8h1z" fill="#007EFF">
        </path>
        <path d="M4 10v5h12v-5" stroke="#007EFF" stroke-linecap="round" stroke-linejoin="round">
        </path>
    </svg>
    <svg width="20" height="20" viewBox="-2 -2 20 20" fill="none" id="user-icon" y="1436">
        <path opacity=".01" fill="#D8D8D8" d="M0 0h16v16H0z">
        </path>
        <path fill-rule="evenodd" clip-rule="evenodd" d="M2.342 2.344a8 8 0 1 1 11.316 11.312A8 8 0 0 1 2.342 2.344zM8.001 3a2.61 2.61 0 0 0-2.61 2.596A2.61 2.61 0 0 0 8 8.193a2.61 2.61 0 0 0 2.61-2.597A2.61 2.61 0 0 0 8.001 3zm4.48 7.268a2.416 2.416 0 0 0-.262-.477 3.247 3.247 0 0 0-2.246-1.406.483.483 0 0 0-.33.08A2.756 2.756 0 0 1 8 8.998a2.756 2.756 0 0 1-1.642-.533.43.43 0 0 0-.33-.08 3.223 3.223 0 0 0-2.508 1.883c-.035.068-.023.147.011.215.091.159.205.317.308.454.16.215.33.408.524.59.16.158.342.305.525.453.9.668 1.983 1.02 3.1 1.02s2.2-.351 3.101-1.02a5 5 0 0 0 .524-.454 5.244 5.244 0 0 0 .833-1.043c.057-.068.068-.147.034-.215z" fill="#DC092E">
        </path>
    </svg>
    <svg width="24" height="24" viewBox="-2 -2 24 24" fill="none" id="verified" y="1456">
        <circle cx="10" cy="10" r="10" fill="#231F20">
        </circle>
        <path d="M8.405 14L5 10.464l1.121-1.16 2.284 2.356L13.88 6 15 7.161 8.405 14z" fill="#fff">
        </path>
    </svg>
    <svg width="16" height="16" viewBox="-2 -2 16 16" fill="none" id="video" y="1480">
        <path d="M6 0C2.691 0 0 2.692 0 6s2.691 6 6 6 6-2.692 6-6-2.691-6-6-6z" fill="#DC092E">
        </path>
        <path fill-rule="evenodd" clip-rule="evenodd" d="M8.297 6.202l-3.15 2.16a.214.214 0 0 1-.23.009.243.243 0 0 1-.117-.21V3.84c0-.089.045-.17.117-.212a.212.212 0 0 1 .23.01l3.15 2.16c.064.043.103.12.103.201 0 .082-.04.158-.103.202z" fill="#fff">
        </path>
    </svg>
    <svg width="20" height="20" viewBox="-2 -2 20 20" fill="none" id="yes" y="1496">
        <path d="M1 7.5L7.222 13 15 3" stroke="#70BE71" stroke-width="2">
        </path>
    </svg>
    <svg id="yt-icon" width="75.412" height="54" viewBox="-2 -2 75.412 54" y="1516">
        <style id="style3">
        </style>
        <g id="g5" transform="scale(.58824)">
            <path d="M118.9 13.3c-1.4-5.2-5.5-9.3-10.7-10.7C98.7 0 60.7 0 60.7 0s-38 0-47.5 2.5C8.1 3.9 3.9 8.1 2.5 13.3 0 22.8 0 42.5 0 42.5s0 19.8 2.5 29.2C3.9 76.9 8 81 13.2 82.4 22.8 85 60.7 85 60.7 85s38 0 47.5-2.5c5.2-1.4 9.3-5.5 10.7-10.7 2.5-9.5 2.5-29.2 2.5-29.2s.1-19.8-2.5-29.3z" id="path7" fill="red">
            </path>
            <path id="polygon9" fill="#fff" d="M80.2 42.5L48.6 24.3v36.4z">
            </path>
        </g>
    </svg>
</svg>