
    <svg  xmlns="http://www.w3.org/2000/svg" xmlns:xlink="http://www.w3.org/1999/xlink" width="20" height="20" viewBox="-2 -2 20 20" fill="none" id="user-icon" y="1436">
        <path opacity=".01" fill="#D8D8D8" d="M0 0h16v16H0z">
        </path>
        <path fill-rule="evenodd" clip-rule="evenodd" d="M2.342 2.344a8 8 0 1 1 11.316 11.312A8 8 0 0 1 2.342 2.344zM8.001 3a2.61 2.61 0 0 0-2.61 2.596A2.61 2.61 0 0 0 8 8.193a2.61 2.61 0 0 0 2.61-2.597A2.61 2.61 0 0 0 8.001 3zm4.48 7.268a2.416 2.416 0 0 0-.262-.477 3.247 3.247 0 0 0-2.246-1.406.483.483 0 0 0-.33.08A2.756 2.756 0 0 1 8 8.998a2.756 2.756 0 0 1-1.642-.533.43.43 0 0 0-.33-.08 3.223 3.223 0 0 0-2.508 1.883c-.035.068-.023.147.011.215.091.159.205.317.308.454.16.215.33.408.524.59.16.158.342.305.525.453.9.668 1.983 1.02 3.1 1.02s2.2-.351 3.101-1.02a5 5 0 0 0 .524-.454 5.244 5.244 0 0 0 .833-1.043c.057-.068.068-.147.034-.215z" fill="#1C5DDA">
        </path>
    </svg>